<?xml version="1.0" encoding="utf-8"?>
<!-- Generator: Adobe Illustrator 14.0.0, SVG Export Plug-In . SVG Version: 6.00 Build 43363)  -->
<!DOCTYPE svg PUBLIC "-//W3C//DTD SVG 1.1//EN" "http://www.w3.org/Graphics/SVG/1.1/DTD/svg11.dtd">
<svg version="1.1" id="Layer_1" xmlns="http://www.w3.org/2000/svg" xmlns:xlink="http://www.w3.org/1999/xlink" x="0px" y="0px"
	 width="500px" height="500px" viewBox="0 0 500 500" enable-background="new 0 0 500 500" xml:space="preserve">
<g>
	<g>
		<g>
			<path fill="#4800A6" d="M108.333,187.536c-13.783,0-25,11.217-25,25s11.217,25,25,25s25-11.217,25-25
				S122.117,187.536,108.333,187.536z"/>
			<path fill="#4800A6" d="M391.668,187.536c-13.783,0-25.001,11.217-25.001,25s11.218,25,25.001,25s25-11.217,25-25
				S405.451,187.536,391.668,187.536z"/>
			<path fill="#4800A6" d="M108.333,345.869c-4.592,0-8.333,3.742-8.333,8.334s3.741,8.332,8.333,8.332s8.333-3.74,8.333-8.332
				S112.924,345.869,108.333,345.869z"/>
			<path fill="#4800A6" d="M391.668,345.869c-4.592,0-8.333,3.742-8.333,8.334s3.741,8.332,8.333,8.332s8.333-3.74,8.333-8.332
				S396.26,345.869,391.668,345.869z"/>
			<path fill="#4800A6" d="M462.043,278.345c30.667-35.275,29.608-72.825,29.55-74.191c0-24.925-9.333-35.967-18.358-46.651
				c-2.792-3.3-5.684-6.717-8.358-10.633c-11.517-16.825-8.733-39.259,6.417-52.45c29.741-16.142,28.925-44.667,28.633-48.951
				c-0.25-25.741-27.267-32.833-41.667-32.983h-16.667c-49.559,0-127.776,63.458-174.268,105.617c6.15-31.8,24.325-89,47.875-89
				c0.309,0,0.625,0.009,0.934,0.033c4.667,0.333,8.55-3.191,8.85-7.783c0.292-4.6-3.191-8.559-7.783-8.85
				c-41.559-2.592-60.7,75.026-65.8,100.159c-0.475-0.025-0.917-0.175-1.4-0.175s-0.925,0.15-1.4,0.175
				c-5.092-25.167-24.241-102.917-65.8-100.159c-4.592,0.292-8.076,4.25-7.784,8.85c0.3,4.592,4.208,8.116,8.85,7.783
				c22.925-1.575,41.759,52.109,48.809,88.958C186.175,75.944,107.966,12.485,58.407,12.485h-16.75
				C27.341,12.635,0.324,19.727,0.074,45.469c-0.292,4.283-1.108,32.8,28.616,48.942c15.167,13.175,17.95,35.625,6.434,52.458
				c-2.675,3.917-5.566,7.333-8.358,10.633c-9.025,10.684-18.358,21.725-18.35,46.326c-0.066,1.675-1.125,39.233,29.533,74.509
				c-10.991,10.533-29.533,35.393-29.517,83.576c-0.075,0.975-1.491,24.059,12.275,38.809c7.275,7.792,17.142,11.75,29.775,11.75
				h0.059c0.092,0,10.991-0.475,18.017,6.208c4.325,4.116,6.517,10.45,6.542,19.375c0.342,5.033,4.2,48.967,32.858,49.425
				c0.65,0.059,1.342,0.092,2.075,0.092c9.792,0,25.917-5.708,30.467-28.283c2.142-10.592,6.908-21.4,14.167-32.134
				c13.134-19.408,38.8-52.601,68.659-66.509c7.259,11.549,16.15,18.508,26.675,18.508c10.525,0,19.417-6.957,26.675-18.508
				c29.858,13.908,55.525,47.1,68.658,66.509c7.259,10.733,12.025,21.542,14.158,32.134c4.559,22.575,20.685,28.283,30.476,28.283
				c0.733,0,1.425-0.033,2.075-0.092c28.658-0.458,32.517-44.392,32.884-49.991c0-8.358,2.191-14.691,6.517-18.809
				c7.017-6.667,17.892-6.217,18.483-6.191c12.2,0,22.075-3.958,29.366-11.767c13.042-13.967,12.45-35.418,12.3-38.475
				C491.534,313.794,473.018,288.886,462.043,278.345z M91.667,95.869c22.975,0,41.667,18.691,41.667,41.667
				c0,4.6-3.733,8.333-8.333,8.333s-8.333-3.733-8.333-8.333c0-13.783-11.217-25-25-25c-4.6,0-8.333-3.733-8.333-8.333
				C83.333,99.602,87.066,95.869,91.667,95.869z M108.333,379.203c-13.783,0-25-11.217-25-25s11.217-25,25-25s25,11.217,25,25
				S122.117,379.203,108.333,379.203z M108.333,254.202c-22.975,0-41.667-18.691-41.667-41.667
				c0-22.975,18.691-41.667,41.667-41.667c22.975,0,41.667,18.692,41.667,41.667C150,235.511,131.308,254.202,108.333,254.202z
				 M282.65,267.544c-0.017,0.309-0.025,0.625-0.042,0.925c-0.467,7.267-1.15,14.441-2.059,21.467l-0.017,0.108
				c-1.741,13.4-4.292,25.725-7.434,36.358c-0.309,1.025-0.608,2.076-0.917,3.066c-0.408,1.268-0.825,2.484-1.241,3.691
				c-0.375,1.076-0.75,2.143-1.134,3.168c-0.45,1.207-0.908,2.383-1.375,3.516c-0.316,0.768-0.634,1.5-0.95,2.234
				c-0.6,1.375-1.208,2.725-1.842,3.982c-5.217,10.592-10.816,16.426-15.642,16.426s-10.425-5.834-15.642-16.426
				c-0.633-1.258-1.241-2.607-1.842-3.982c-0.316-0.734-0.634-1.467-0.95-2.234c-0.467-1.133-0.925-2.309-1.375-3.516
				c-0.384-1.025-0.758-2.092-1.134-3.168c-0.417-1.207-0.833-2.424-1.241-3.691c-0.309-0.992-0.608-2.041-0.917-3.066
				c-3.142-10.633-5.691-22.958-7.434-36.358l-0.017-0.108c-0.908-7.025-1.592-14.2-2.059-21.467
				c-0.017-0.3-0.025-0.616-0.042-0.925c-0.441-7.167-0.684-14.425-0.684-21.725c0-4.059,0.083-8,0.208-11.884
				c0.033-1.175,0.092-2.325,0.142-3.491c0.108-2.75,0.25-5.467,0.425-8.134c0.075-1.175,0.15-2.35,0.233-3.5
				c0.217-2.892,0.467-5.725,0.75-8.491c0.075-0.733,0.133-1.483,0.217-2.2c0.375-3.483,0.8-6.875,1.267-10.158
				c0.1-0.65,0.2-1.267,0.3-1.9c0.384-2.592,0.8-5.117,1.241-7.575c0.175-0.975,0.358-1.941,0.542-2.892
				c0.4-2.117,0.825-4.167,1.267-6.175c0.2-0.917,0.4-1.85,0.6-2.741c0.525-2.259,1.075-4.425,1.642-6.542
				c0.267-1,0.533-1.975,0.816-2.941c0.509-1.816,1.042-3.583,1.583-5.283c0.392-1.233,0.8-2.4,1.208-3.566
				c0.309-0.908,0.625-1.8,0.95-2.667c0.491-1.325,0.983-2.616,1.491-3.842c0.175-0.434,0.358-0.842,0.533-1.259
				c2.684-6.3,5.517-11.325,8.35-14.892l1.608-2.025c2.75-2.95,5.458-4.509,7.958-4.509s5.208,1.559,7.958,4.509l1.608,2.025
				c2.833,3.566,5.667,8.592,8.35,14.892c0.175,0.417,0.358,0.825,0.533,1.259c0.509,1.225,1,2.517,1.491,3.842
				c0.325,0.866,0.642,1.759,0.95,2.667c0.408,1.167,0.816,2.333,1.208,3.566c0.542,1.7,1.075,3.467,1.583,5.283
				c0.283,0.967,0.55,1.941,0.816,2.941c0.566,2.116,1.116,4.283,1.642,6.542c0.2,0.892,0.4,1.825,0.6,2.741
				c0.441,2.009,0.866,4.059,1.267,6.175c0.184,0.958,0.366,1.917,0.542,2.892c0.441,2.441,0.85,4.95,1.233,7.517
				c0.1,0.667,0.208,1.3,0.309,1.975c0.467,3.275,0.892,6.658,1.267,10.142c0.083,0.717,0.142,1.467,0.217,2.2
				c0.283,2.767,0.533,5.6,0.75,8.491c0.083,1.15,0.158,2.325,0.233,3.5c0.175,2.667,0.316,5.384,0.425,8.134
				c0.05,1.167,0.108,2.316,0.142,3.491c0.125,3.884,0.208,7.825,0.208,11.884C283.334,253.119,283.092,260.378,282.65,267.544z
				 M408.335,95.869c4.6,0,8.333,3.733,8.333,8.333s-3.733,8.333-8.333,8.333c-13.783,0-25,11.217-25,25
				c0,4.6-3.733,8.333-8.333,8.333s-8.334-3.733-8.334-8.333C366.667,114.56,385.359,95.869,408.335,95.869z M391.668,379.203
				c-13.783,0-25.001-11.217-25.001-25s11.218-25,25.001-25s25,11.217,25,25S405.451,379.203,391.668,379.203z M391.668,254.202
				c-22.976,0-41.668-18.691-41.668-41.667c0-22.975,18.691-41.667,41.668-41.667c22.975,0,41.667,18.692,41.667,41.667
				S414.643,254.202,391.668,254.202z"/>
		</g>
	</g>
</g>
</svg>
