<?xml version="1.0" encoding="iso-8859-1"?>
<!-- Generator: Adobe Illustrator 19.0.0, SVG Export Plug-In . SVG Version: 6.00 Build 0)  -->
<svg version="1.1" id="Layer_1" xmlns="http://www.w3.org/2000/svg" xmlns:xlink="http://www.w3.org/1999/xlink" x="0px" y="0px"
	 viewBox="0 0 511.998 511.998" style="enable-background:new 0 0 511.998 511.998;" xml:space="preserve">
<g>
	<g>
		<g>
			<path fill="#6f00ff" d="M110.933,192.036c-14.114,0-25.6,11.486-25.6,25.6c0,14.114,11.486,25.6,25.6,25.6s25.6-11.486,25.6-25.6
				C136.533,203.522,125.047,192.036,110.933,192.036z"/>
			<path fill="#6f00ff" d="M401.066,192.036c-14.114,0-25.6,11.486-25.6,25.6c0,14.114,11.486,25.6,25.6,25.6c14.114,0,25.6-11.486,25.6-25.6
				C426.666,203.522,415.18,192.036,401.066,192.036z"/>
			<path fill="#6f00ff" d="M110.933,354.169c-4.702,0-8.533,3.831-8.533,8.533s3.831,8.533,8.533,8.533c4.702,0,8.533-3.831,8.533-8.533
				S115.634,354.169,110.933,354.169z"/>
			<path fill="#6f00ff" d="M401.066,354.169c-4.702,0-8.533,3.831-8.533,8.533s3.831,8.533,8.533,8.533c4.702,0,8.533-3.831,8.533-8.533
				S405.768,354.169,401.066,354.169z"/>
			<path fill="#6f00ff" d="M473.13,285.024c31.403-36.122,30.319-74.573,30.259-75.972c0-25.523-9.557-36.83-18.799-47.77
				c-2.859-3.379-5.82-6.878-8.559-10.888c-11.793-17.229-8.943-40.201,6.571-53.709c30.455-16.529,29.619-45.739,29.32-50.125
				c-0.256-26.359-27.921-33.621-42.667-33.775h-17.067c-50.748,0-130.842,64.981-178.449,108.151
				c6.298-32.563,24.909-91.136,49.024-91.136c0.316,0,0.64,0.009,0.956,0.034c4.779,0.341,8.755-3.268,9.062-7.97
				c0.299-4.71-3.268-8.764-7.97-9.062c-42.556-2.654-62.157,76.826-67.379,102.562c-0.486-0.026-0.939-0.179-1.434-0.179
				c-0.495,0-0.947,0.154-1.434,0.179c-5.214-25.771-24.823-105.387-67.379-102.562c-4.702,0.299-8.269,4.352-7.97,9.062
				c0.307,4.702,4.309,8.311,9.062,7.97c23.475-1.613,42.761,53.359,49.98,91.093C190.642,77.766,110.557,12.785,59.809,12.785
				H42.657C27.997,12.938,0.332,20.2,0.076,46.56c-0.299,4.386-1.135,33.587,29.303,50.116c15.531,13.491,18.381,36.48,6.588,53.717
				c-2.739,4.011-5.7,7.509-8.559,10.888c-9.242,10.94-18.799,22.246-18.79,47.437c-0.068,1.715-1.152,40.175,30.242,76.297
				c-11.255,10.786-30.242,36.241-30.225,85.581c-0.077,0.998-1.527,24.636,12.57,39.74c7.45,7.979,17.553,12.032,30.49,12.032h0.06
				c0.094,0,11.255-0.486,18.449,6.357c4.429,4.215,6.673,10.701,6.699,19.84c0.35,5.154,4.301,50.142,33.647,50.611
				c0.666,0.06,1.374,0.094,2.125,0.094c10.027,0,26.539-5.845,31.198-28.962c2.193-10.846,7.074-21.914,14.507-32.905
				c13.449-19.874,39.731-53.862,70.306-68.105c7.433,11.827,16.538,18.953,27.315,18.953c10.778,0,19.883-7.125,27.315-18.953
				c30.575,14.242,56.858,48.23,70.306,68.105c7.433,10.991,12.314,22.059,14.498,32.905c4.668,23.117,21.18,28.962,31.206,28.962
				c0.751,0,1.459-0.034,2.125-0.094c29.346-0.469,33.297-45.457,33.673-51.191c0-8.559,2.244-15.044,6.673-19.26
				c7.185-6.827,18.321-6.366,18.927-6.34c12.493,0,22.605-4.053,30.071-12.049c13.355-14.302,12.749-36.267,12.595-39.398
				C503.329,321.324,484.368,295.818,473.13,285.024z M93.866,98.169c23.526,0,42.667,19.14,42.667,42.667
				c0,4.71-3.823,8.533-8.533,8.533c-4.71,0-8.533-3.823-8.533-8.533c0-14.114-11.486-25.6-25.6-25.6
				c-4.71,0-8.533-3.823-8.533-8.533C85.332,101.992,89.155,98.169,93.866,98.169z M110.933,388.302
				c-14.114,0-25.6-11.486-25.6-25.6s11.486-25.6,25.6-25.6s25.6,11.486,25.6,25.6S125.047,388.302,110.933,388.302z
				 M110.933,260.302c-23.526,0-42.667-19.14-42.667-42.667c0-23.526,19.14-42.667,42.667-42.667
				c23.526,0,42.667,19.14,42.667,42.667C153.599,241.162,134.459,260.302,110.933,260.302z M289.433,273.964
				c-0.017,0.316-0.026,0.64-0.043,0.947c-0.478,7.441-1.178,14.788-2.108,21.982l-0.017,0.111
				c-1.783,13.722-4.395,26.342-7.612,37.231c-0.316,1.05-0.623,2.125-0.939,3.14c-0.418,1.297-0.845,2.543-1.271,3.78
				c-0.384,1.101-0.768,2.193-1.161,3.243c-0.461,1.237-0.93,2.441-1.408,3.601c-0.324,0.785-0.649,1.536-0.973,2.287
				c-0.614,1.408-1.237,2.79-1.886,4.079c-5.342,10.846-11.076,16.819-16.017,16.819c-4.941,0-10.675-5.973-16.017-16.819
				c-0.648-1.289-1.271-2.671-1.886-4.079c-0.324-0.751-0.649-1.502-0.973-2.287c-0.478-1.161-0.947-2.364-1.408-3.601
				c-0.393-1.05-0.776-2.142-1.161-3.243c-0.427-1.237-0.853-2.483-1.271-3.78c-0.316-1.016-0.623-2.091-0.939-3.14
				c-3.217-10.888-5.828-23.509-7.612-37.231l-0.017-0.111c-0.93-7.194-1.63-14.541-2.108-21.982
				c-0.017-0.307-0.026-0.631-0.043-0.947c-0.452-7.339-0.7-14.771-0.7-22.246c0-4.156,0.085-8.192,0.213-12.169
				c0.034-1.203,0.094-2.381,0.145-3.575c0.111-2.816,0.256-5.598,0.435-8.329c0.077-1.203,0.154-2.406,0.239-3.584
				c0.222-2.961,0.478-5.862,0.768-8.695c0.077-0.751,0.136-1.519,0.222-2.253c0.384-3.567,0.819-7.04,1.297-10.402
				c0.102-0.666,0.205-1.297,0.307-1.946c0.393-2.654,0.819-5.24,1.271-7.757c0.179-0.998,0.367-1.988,0.555-2.961
				c0.41-2.167,0.845-4.267,1.297-6.323c0.205-0.939,0.41-1.894,0.614-2.807c0.538-2.313,1.101-4.531,1.681-6.699
				c0.273-1.024,0.546-2.022,0.836-3.012c0.521-1.86,1.067-3.669,1.621-5.41c0.401-1.263,0.819-2.458,1.237-3.652
				c0.316-0.93,0.64-1.843,0.973-2.731c0.503-1.357,1.007-2.679,1.527-3.934c0.179-0.444,0.367-0.862,0.546-1.289
				c2.748-6.451,5.649-11.597,8.55-15.249l1.647-2.074c2.816-3.021,5.589-4.617,8.149-4.617c2.56,0,5.333,1.596,8.149,4.617
				l1.647,2.074c2.901,3.652,5.803,8.798,8.55,15.249c0.179,0.427,0.367,0.845,0.546,1.289c0.521,1.254,1.024,2.577,1.527,3.934
				c0.333,0.887,0.657,1.801,0.973,2.731c0.418,1.195,0.836,2.389,1.237,3.652c0.555,1.741,1.101,3.55,1.621,5.41
				c0.29,0.99,0.563,1.988,0.836,3.012c0.58,2.167,1.143,4.386,1.681,6.699c0.205,0.913,0.41,1.869,0.614,2.807
				c0.452,2.057,0.887,4.156,1.297,6.323c0.188,0.981,0.375,1.963,0.555,2.961c0.452,2.5,0.87,5.069,1.263,7.697
				c0.102,0.683,0.213,1.331,0.316,2.022c0.478,3.354,0.913,6.818,1.297,10.385c0.085,0.734,0.145,1.502,0.222,2.253
				c0.29,2.833,0.546,5.734,0.768,8.695c0.085,1.178,0.162,2.381,0.239,3.584c0.179,2.731,0.324,5.513,0.435,8.329
				c0.051,1.195,0.111,2.372,0.145,3.575c0.128,3.977,0.213,8.013,0.213,12.169C290.133,259.193,289.885,266.626,289.433,273.964z
				 M418.133,98.169c4.71,0,8.533,3.823,8.533,8.533c0,4.71-3.823,8.533-8.533,8.533c-14.114,0-25.6,11.486-25.6,25.6
				c0,4.71-3.823,8.533-8.533,8.533s-8.533-3.823-8.533-8.533C375.466,117.309,394.606,98.169,418.133,98.169z M401.066,388.302
				c-14.114,0-25.6-11.486-25.6-25.6s11.486-25.6,25.6-25.6c14.114,0,25.6,11.486,25.6,25.6S415.18,388.302,401.066,388.302z
				 M401.066,260.302c-23.526,0-42.667-19.14-42.667-42.667c0-23.526,19.14-42.667,42.667-42.667
				c23.526,0,42.667,19.14,42.667,42.667C443.733,241.162,424.592,260.302,401.066,260.302z"/>
		</g>
	</g>
</g>
<g>
</g>
<g>
</g>
<g>
</g>
<g>
</g>
<g>
</g>
<g>
</g>
<g>
</g>
<g>
</g>
<g>
</g>
<g>
</g>
<g>
</g>
<g>
</g>
<g>
</g>
<g>
</g>
<g>
</g>
</svg>
