<?xml version="1.0" encoding="utf-8"?>
<!-- Generator: Adobe Illustrator 14.0.0, SVG Export Plug-In . SVG Version: 6.00 Build 43363)  -->
<!DOCTYPE svg PUBLIC "-//W3C//DTD SVG 1.1//EN" "http://www.w3.org/Graphics/SVG/1.1/DTD/svg11.dtd">
<svg version="1.1" id="Layer_1" xmlns="http://www.w3.org/2000/svg" xmlns:xlink="http://www.w3.org/1999/xlink" x="0px" y="0px"
	 width="500px" height="500px" viewBox="0 0 500 500" enable-background="new 0 0 500 500" xml:space="preserve">
<g transform="translate(-1 -1)">
	<g>
		<g>
			<path fill="#4800A6" d="M92.713,134.374c-9.188,0-16.662,7.472-16.662,16.662c0,9.188,7.472,16.662,16.662,16.662
				c9.188,0,16.662-7.472,16.662-16.662S101.902,134.374,92.713,134.374z"/>
			<path fill="#4800A6" d="M92.713,367.633c-13.779,0-24.992,11.214-24.992,24.992c0,13.779,11.213,24.993,24.992,24.993
				s24.992-11.214,24.992-24.993C117.706,378.847,106.492,367.633,92.713,367.633z"/>
			<path fill="#4800A6" d="M500.919,384.229c0-69.911-83.073-101.701-143.713-115.588c43.52-11.514,70.037-32.898,73.793-36.064
				c63.056-43.095,61.682-128.193,61.59-131.593c0-39.471-37.354-55.341-57.107-58.232c-0.4-0.05-0.809-0.083-1.208-0.083
				c-25.783,0-109.016,80.234-149.953,121.321v-29.682c0-0.059-0.033-0.1-0.033-0.158c5.183-6.939,8.365-15.462,8.365-24.768
				c0-13.529-6.581-25.442-16.595-33.056c1.259-7.382,11.421-60.564,41.054-58.598c4.723,0.3,8.547-3.19,8.847-7.781
				c0.292-4.59-3.19-8.547-7.78-8.847c-40.705-2.482-54.267,49.751-57.741,67.804c-3.049-0.716-6.182-1.174-9.438-1.174
				s-6.39,0.458-9.431,1.167c-3.466-18.077-16.995-70.461-57.749-67.795c-4.59,0.3-8.073,4.257-7.781,8.847
				c0.292,4.59,4.016,8.064,8.847,7.781c29.766-1.99,39.813,51.208,41.054,58.598c-10.013,7.614-16.594,19.527-16.594,33.056
				c0,9.306,3.183,17.827,8.363,24.768c0,0.059-0.033,0.1-0.033,0.158v29.682C176.737,122.901,93.505,42.668,67.721,42.668
				c-0.4,0-0.808,0.033-1.208,0.083C46.761,45.642,9.407,61.512,9.407,100.775c-0.092,3.607-1.466,88.706,61.589,131.801
				c3.758,3.166,30.274,24.551,73.786,36.055C84.15,282.511,1.075,314.251,1.084,383.879c-0.083,1.933-1.7,47.718,22.818,86.548
				c9.631,15.254,24.626,25.626,42.246,29.215C70.58,500.55,75.029,501,79.443,501c13.304,0,26.292-4.058,37.58-11.862
				c28.749-19.878,62.563-52.958,100.652-98.36v1.782c0,18.378,14.946,33.322,33.323,33.322c18.378,0,33.322-14.945,33.322-33.322
				v-1.782c38.088,45.402,71.902,78.483,100.652,98.36c11.289,7.813,24.275,11.862,37.58,11.862c4.416,0,8.864-0.45,13.296-1.357
				c17.619-3.591,32.614-13.963,42.245-29.216C502.611,431.597,500.994,385.812,500.919,384.229z M409.281,117.711
				c18.379,0,33.323,14.946,33.323,33.323c0,18.378-14.946,33.323-33.323,33.323s-33.322-14.946-33.322-33.323
				C375.958,132.657,390.903,117.711,409.281,117.711z M92.713,184.358c-18.378,0-33.322-14.946-33.322-33.323
				c0-18.378,14.945-33.323,33.322-33.323c18.378,0,33.323,14.946,33.323,33.323S111.092,184.358,92.713,184.358z M92.713,434.279
				c-22.967,0-41.654-18.686-41.654-41.654c0-22.967,18.686-41.653,41.654-41.653c22.968,0,41.654,18.686,41.654,41.653
				C134.368,415.594,115.681,434.279,92.713,434.279z M267.658,184.292v183.275v24.992c0,9.189-7.472,16.662-16.661,16.662
				c-9.188,0-16.662-7.472-16.662-16.662v-24.992V184.292v-36.789c5.114,2.241,10.73,3.532,16.662,3.532s11.546-1.292,16.661-3.532
				V184.292z M409.281,434.279c-22.967,0-41.653-18.686-41.653-41.654c0-22.967,18.686-41.653,41.653-41.653
				s41.654,18.686,41.654,41.653C450.935,415.594,432.249,434.279,409.281,434.279z"/>
			<path fill="#4800A6" d="M409.281,367.633c-13.778,0-24.992,11.214-24.992,24.992c0,13.779,11.214,24.993,24.992,24.993
				c13.779,0,24.992-11.214,24.992-24.993C434.273,378.847,423.061,367.633,409.281,367.633z"/>
			<path fill="#4800A6" d="M409.281,167.696c9.188,0,16.662-7.472,16.662-16.662c0-9.188-7.473-16.662-16.662-16.662
				s-16.661,7.472-16.661,16.662S400.092,167.696,409.281,167.696z"/>
		</g>
	</g>
</g>
</svg>
