<?xml version="1.0" encoding="iso-8859-1"?>
<!-- Generator: Adobe Illustrator 19.0.0, SVG Export Plug-In . SVG Version: 6.00 Build 0)  -->
<svg version="1.1" id="Layer_1" xmlns="http://www.w3.org/2000/svg" xmlns:xlink="http://www.w3.org/1999/xlink" x="0px" y="0px"
	 viewBox="0 0 512.16 512.16" style="enable-background:new 0 0 512.16 512.16;" xml:space="preserve">
<g transform="translate(-1 -1)">
	<g>
		<g>
			<path fill="#6f00ff" d="M94.944,137.617c-9.412,0-17.067,7.654-17.067,17.067c0,9.412,7.654,17.067,17.067,17.067
				c9.412,0,17.067-7.654,17.067-17.067C112.011,145.271,104.356,137.617,94.944,137.617z"/>
			<path fill="#6f00ff" d="M94.944,376.55c-14.114,0-25.6,11.486-25.6,25.6c0,14.114,11.486,25.6,25.6,25.6s25.6-11.486,25.6-25.6
				C120.544,388.036,109.058,376.55,94.944,376.55z"/>
			<path fill="#6f00ff" d="M513.077,393.549c0-71.612-85.094-104.175-147.208-118.4c44.578-11.793,71.74-33.698,75.588-36.941
				c64.589-44.143,63.181-131.311,63.087-134.793c0-40.431-38.263-56.687-58.496-59.648c-0.41-0.051-0.828-0.085-1.237-0.085
				c-26.411,0-111.667,82.185-153.6,124.271v-30.404c0-0.06-0.034-0.102-0.034-0.162c5.308-7.108,8.568-15.838,8.568-25.37
				c0-13.858-6.741-26.061-16.998-33.86c1.289-7.561,11.699-62.037,42.052-60.023c4.838,0.307,8.755-3.268,9.062-7.97
				c0.299-4.702-3.268-8.755-7.97-9.062c-41.694-2.543-55.586,50.961-59.145,69.453c-3.123-0.734-6.332-1.203-9.668-1.203
				s-6.545,0.469-9.66,1.195c-3.55-18.517-17.408-72.175-59.153-69.444c-4.702,0.307-8.269,4.361-7.97,9.062
				c0.299,4.702,4.113,8.26,9.062,7.97c30.49-2.039,40.781,52.454,42.052,60.023c-10.257,7.799-16.998,20.002-16.998,33.86
				c0,9.532,3.26,18.261,8.567,25.37c0,0.06-0.034,0.102-0.034,0.162v30.404C181.011,125.866,95.755,43.682,69.344,43.682
				c-0.41,0-0.828,0.034-1.237,0.085C47.874,46.728,9.611,62.984,9.611,103.202c-0.094,3.695-1.502,90.863,63.087,135.006
				c3.849,3.243,31.01,25.148,75.58,36.932C86.172,289.357,1.077,321.869,1.086,393.19c-0.085,1.98-1.741,48.879,23.373,88.653
				c9.865,15.625,25.225,26.249,43.273,29.926c4.54,0.93,9.097,1.391,13.619,1.391c13.628,0,26.931-4.156,38.494-12.151
				c29.448-20.361,64.085-54.246,103.1-100.753v1.826c0,18.825,15.309,34.133,34.133,34.133c18.825,0,34.133-15.309,34.133-34.133
				v-1.826c39.014,46.507,73.651,80.393,103.1,100.753c11.563,8.004,24.866,12.151,38.494,12.151c4.523,0,9.08-0.461,13.619-1.391
				c18.048-3.678,33.408-14.302,43.273-29.926C514.81,442.069,513.154,395.17,513.077,393.549z M419.211,120.55
				c18.825,0,34.133,15.309,34.133,34.133c0,18.825-15.309,34.133-34.133,34.133s-34.133-15.309-34.133-34.133
				C385.077,135.859,400.386,120.55,419.211,120.55z M94.944,188.817c-18.825,0-34.133-15.309-34.133-34.133
				c0-18.825,15.309-34.133,34.133-34.133c18.825,0,34.133,15.309,34.133,34.133C129.077,173.508,113.769,188.817,94.944,188.817z
				 M94.944,444.817c-23.526,0-42.667-19.14-42.667-42.667c0-23.526,19.14-42.667,42.667-42.667
				c23.526,0,42.667,19.14,42.667,42.667C137.611,425.677,118.47,444.817,94.944,444.817z M274.144,188.749v187.733v25.6
				c0,9.412-7.654,17.067-17.067,17.067c-9.412,0-17.067-7.654-17.067-17.067v-25.6V188.749v-37.683
				c5.239,2.295,10.991,3.618,17.067,3.618s11.827-1.323,17.067-3.618V188.749z M419.211,444.817
				c-23.526,0-42.667-19.14-42.667-42.667c0-23.526,19.14-42.667,42.667-42.667c23.526,0,42.667,19.14,42.667,42.667
				C461.877,425.677,442.737,444.817,419.211,444.817z"/>
			<path fill="#6f00ff" d="M419.211,376.55c-14.114,0-25.6,11.486-25.6,25.6c0,14.114,11.486,25.6,25.6,25.6s25.6-11.486,25.6-25.6
				C444.811,388.036,433.325,376.55,419.211,376.55z"/>
			<path fill="#6f00ff" d="M419.211,171.75c9.412,0,17.067-7.654,17.067-17.067c0-9.412-7.654-17.067-17.067-17.067s-17.067,7.654-17.067,17.067
				C402.144,164.096,409.798,171.75,419.211,171.75z"/>
		</g>
	</g>
</g>
<g>
</g>
<g>
</g>
<g>
</g>
<g>
</g>
<g>
</g>
<g>
</g>
<g>
</g>
<g>
</g>
<g>
</g>
<g>
</g>
<g>
</g>
<g>
</g>
<g>
</g>
<g>
</g>
<g>
</g>
</svg>
