<?xml version="1.0" encoding="utf-8"?>
<!-- Generator: Adobe Illustrator 14.0.0, SVG Export Plug-In . SVG Version: 6.00 Build 43363)  -->
<!DOCTYPE svg PUBLIC "-//W3C//DTD SVG 1.1//EN" "http://www.w3.org/Graphics/SVG/1.1/DTD/svg11.dtd">
<svg version="1.1" id="Capa_1" xmlns="http://www.w3.org/2000/svg" xmlns:xlink="http://www.w3.org/1999/xlink" x="0px" y="0px"
	 width="803.17px" height="803.175px" viewBox="0 -487.825 803.17 803.175" enable-background="new 0 -487.825 803.17 803.175"
	 xml:space="preserve">
<g>
	<g>
		<path d="M378.854-422.42c-9.312-27.51-312.664,16.346-340.083,11.214c-26.223-4.909-28.677,271.486-21.08,303.16
			C-1.797-75.947,52.906-67.13,66.534-45.905c6.454,10.05,34.975,41.413,54.341,6.986c-10.033-15.574-65.273-54.747-70.156-81.785
			c-4.881-27.039-14.649-232.288,3.051-230.505c31.179,3.145,261.904-113.616,250.904-54.616c-10.691,8.138-10.5,33.5,26.582,38.117
			C405.853-373.709,387.582-396.625,378.854-422.42z"/>
		<path d="M517.03-458.068c-24.856,2.666-78.676,36.147-138.176,35.647c-3.41,11.479,3.357,47.767,6.759,36.318
			c12.845-43.214,336.149-59.755,349.122-36.318c7.362,13.301-155.227,292.929-119.227,314.262c36,3.333,95.484-9.177,8.81,74.155
			c-9.992,21.668,9.856,23.512,22.522,30.845c22.583,2.889,50.259-38.405,107.395-83.079
			c-55.497-270.971,41.335-352.978,28.498-371.85C769.309-477.811,543.537-460.906,517.03-458.068z"/>
		<path d="M360.887,177.068c-32.519,34.458-319.631,29.896-319.117-0.328c0.29-17.152-10.345-184.831,15-179.967
			c19.171,3.685,37.416-4.702,50.65,6.997c8.54,7.542,34.35-21.215,25.846-28.725C115.31-40.819,112.28-64.38,80.769-50.052
			c-25.755,11.707-70.64-0.627-68.997,25.097c1.717,26.889-10.678,243.101,13.5,255.683
			c22.667,11.803,330.632-12.327,351.038-33.946C384.952,187.623,369.504,167.941,360.887,177.068z"/>
		<path d="M629.741-37.341c-10.581,4.244-10.771,12.386-4.566,30.016c9.985,15.5,22.5,0,49.564,52.096
			c23.999,113.994-29.998,107.995-59.997,124.494c-48.061,26.045-169.859,58.338-184.149,13.296
			c-3.782-11.931-20.47-6.118-16.676,5.843c8.968,28.26,34.443,37.023,59.246,33.684c26.446-3.564,274.424,5.646,287.072-19.824
			c12.096-24.354,33.334-211.849-17.999-238.488C692.652-51.417,652.085-46.312,629.741-37.341z"/>
		<path d="M376.309,196.782c4.463-1.992,0.212-3.301-1.409-7.414c-1.625-4.106-9.561-14.291-14.013-12.3
			c-20.777,9.289-36.812,33.196-36.196,54.284c0.786,26.945,32.257,56.632,60.466,53.072c28.21-3.559,54.705-37.723,53.917-64.659
			c-0.443-15.201-1.041-34.859-13.957-42.612c-3.833-2.297-16.275,5.542-19.065,9.49c-2.789,3.951-1.958,9.016,1.871,11.308
			c8.597,5.152,13.693,13.894,13.987,23.979c0.523,17.896-14.3,34.381-33.041,36.746c-18.743,2.363-34.424-10.271-34.945-28.168
			C353.511,216.512,362.515,202.95,376.309,196.782z"/>
	</g>
</g>
</svg>
