<?xml version="1.0" encoding="utf-8"?>
<!-- Generator: Adobe Illustrator 14.0.0, SVG Export Plug-In . SVG Version: 6.00 Build 43363)  -->
<!DOCTYPE svg PUBLIC "-//W3C//DTD SVG 1.1//EN" "http://www.w3.org/Graphics/SVG/1.1/DTD/svg11.dtd">
<svg version="1.1" id="Capa_1" xmlns="http://www.w3.org/2000/svg" xmlns:xlink="http://www.w3.org/1999/xlink" x="0px" y="0px"
	 width="500.748px" height="500.75px" viewBox="0 0 500.748 500.75" enable-background="new 0 0 500.748 500.75"
	 xml:space="preserve">
<g>
	<g>
		<path d="M372.976,195.521c4.402-26.305-5.49-51.914-23.738-70.737c-17.453-18.001-46.628-25.71-69.25-14.071
			c-27.671,14.246-17.429,51.73-16.04,75.518c0.656,11.264,18.192,11.001,17.53-0.307c-1.021-17.533-7.413-36.102,0.57-52.852
			c10.556-22.147,42.601-6.652,55.007,4.316c21.859,19.324,32.674,86.699-9.923,88.575c-11.285,0.496-11.012,18.024,0.303,17.527
			C354.173,242.317,368.848,220.184,372.976,195.521z"/>
		<path d="M374.737,297.126c-4.978-24.51-20.416-46.122-47.174-46.371c-11.324-0.104-10.992,17.424,0.305,17.528
			c42.641,0.397,34.168,68.109,12.984,88.181c-12.019,11.392-43.508,27.987-54.826,6.218c-8.557-16.465-2.817-35.243-2.396-52.804
			c0.265-11.329-17.268-10.977-17.529,0.303c-0.563,23.824-9.504,61.64,18.642,74.918c23.005,10.854,51.901,2.137,68.723-16.461
			C371.045,349.197,380.042,323.263,374.737,297.126z"/>
		<path d="M172.879,228.636c-42.641-0.396-34.166-68.107-12.984-88.178c12.02-11.392,43.506-27.99,54.824-6.221
			c8.558,16.467,2.818,35.243,2.399,52.805c-0.267,11.327,17.264,10.976,17.527-0.305c0.563-23.821,9.506-61.635-18.643-74.915
			c-23.006-10.856-51.9-2.139-68.722,16.46c-17.585,19.442-26.584,45.379-21.274,71.516c4.974,24.51,20.415,46.12,47.169,46.371
			C184.511,246.273,184.178,228.744,172.879,228.636z"/>
		<path d="M236.797,310.688c-0.652-11.265-18.186-11.009-17.527,0.304c1.025,17.542,7.414,36.103-0.571,52.853
			c-10.552,22.148-42.6,6.656-55.006-4.314c-21.859-19.321-32.677-86.704,9.926-88.576c11.285-0.495,11.007-18.027-0.306-17.53
			c-26.73,1.177-41.412,23.311-45.539,47.979c-4.398,26.305,5.492,51.913,23.742,70.737c17.45,18,46.627,25.709,69.251,14.071
			C248.43,371.963,238.187,334.478,236.797,310.688z"/>
		<path d="M281.766,236.137c1.43,4.158,5.951,6.367,10.109,4.935c4.152-1.436,6.365-5.962,4.935-10.108
			c-6.663-19.354-24.878-32.203-45.336-31.973c-26.138,0.296-47.152,21.804-46.857,47.937c0.295,26.135,21.796,47.154,47.929,46.859
			c14.746-0.167,28.322-7.041,37.258-18.855c2.649-3.506,1.954-8.496-1.552-11.138c-3.511-2.643-8.498-1.955-11.141,1.55
			c-5.941,7.862-14.962,12.433-24.745,12.543c-17.361,0.195-31.646-13.771-31.842-31.133c-0.196-17.364,13.77-31.653,31.131-31.85
			C265.233,214.749,277.341,223.289,281.766,236.137z"/>
	</g>
</g>
</svg>
