<?xml version="1.0" encoding="utf-8"?>
<!-- Generator: Adobe Illustrator 14.0.0, SVG Export Plug-In . SVG Version: 6.00 Build 43363)  -->
<!DOCTYPE svg PUBLIC "-//W3C//DTD SVG 1.1//EN" "http://www.w3.org/Graphics/SVG/1.1/DTD/svg11.dtd">
<svg version="1.1" id="Capa_1" xmlns="http://www.w3.org/2000/svg" xmlns:xlink="http://www.w3.org/1999/xlink" x="0px" y="0px"
	 width="803.17px" height="803.175px" viewBox="0 -487.825 803.17 803.175" enable-background="new 0 -487.825 803.17 803.175"
	 xml:space="preserve">
<g>
	<g>
		<path d="M495.458-124.821c13.088-25.675,11.134-53.87-1.682-77.071c-12.256-22.188-40.001-36.588-67.221-29.895
			c-33.303,8.197-27.428,68.789-33.697,93.217c-2.969,11.567,19.691,30.306,23.57,16.931c1.132-15.769-10.387-64.842,5.014-87.015
			s46.314,2.871,55.622,16.791c16.396,24.523,1.168,96.284-43.594,88.571c-11.858-2.044-12.657,14.775-0.769,16.825
			C460.799-81.623,483.183-100.75,495.458-124.821z"/>
		<path d="M784.233-87.816c-7.77-22.933-315.484-8.528-340.938-8.445c-10.772,0.037-8.282,16.476,2.464,16.44
			C745.236-77.93,803.17-184.719,781.255,286.257c-332.75-22.5-310.369,49.318-360.545-217.669
			c-2.179-23.521-10.044-92.385-11.823-108.865c-1.153-10.63-17.766-10.092-16.616,0.492c2.42,22.356,19.792,319.922,48.178,332.043
			c23.203,9.909,311.673-1.539,355.171,4.461C792.62,277.22,792.516-63.36,784.233-87.816z"/>
		<path d="M340.703-95.455c-42.641,0.484-35.565-67.387-14.804-87.891c11.782-11.638,42.919-28.882,54.685-7.353
			c8.896,16.287,3.545,35.178,3.489,52.744c-0.032,11.331,17.486,10.617,17.518-0.666c0.07-23.828,8.23-61.819-20.187-74.514
			c-23.226-10.378-51.934-1.067-68.367,17.876c-17.18,19.801-25.642,45.918-19.792,71.94c5.479,24.401,21.362,45.688,48.117,45.386
			C352.696-78.063,352-95.581,340.703-95.455z"/>
		<path d="M406.302-38.741c-0.886-11.249-18.41-10.631-17.519,0.665c1.389,17.517,8.159,35.942,0.521,52.854
			c-10.091,22.362-42.452,7.535-55.082-3.177c-22.254-18.866-34.461-86.01,8.094-88.762c11.271-0.728,10.632-18.251-0.668-17.521
			c-26.7,1.729-40.921,24.161-44.538,48.909c-3.854,26.39,6.563,51.789,25.198,70.232c17.818,17.636,47.147,24.741,69.526,12.638
			C419.198,22.28,408.182-14.985,406.302-38.741z"/>
		<path d="M424.028-82.214c-0.787,4.326,2.077,8.464,6.404,9.249c4.324,0.778,8.467-2.087,9.248-6.403
			c3.654-20.142-5.95-40.257-23.906-50.061c-22.943-12.526-51.793-4.043-64.316,18.895c-12.523,22.939-4.051,51.79,18.888,64.314
			c12.943,7.067,28.148,7.71,41.72,1.775c4.025-1.762,5.859-6.454,4.093-10.473c-1.769-4.021-6.455-5.862-10.474-4.097
			c-9.028,3.952-19.131,3.527-27.719-1.162c-15.239-8.319-20.868-27.488-12.548-42.728c8.321-15.242,27.491-20.876,42.73-12.556
			C420.067-108.956,426.452-95.586,424.028-82.214z"/>
	</g>
</g>
</svg>
