<?xml version="1.0" encoding="utf-8"?>
<!-- Generator: Adobe Illustrator 14.0.0, SVG Export Plug-In . SVG Version: 6.00 Build 43363)  -->
<!DOCTYPE svg PUBLIC "-//W3C//DTD SVG 1.1//EN" "http://www.w3.org/Graphics/SVG/1.1/DTD/svg11.dtd">
<svg version="1.1" id="Capa_1" xmlns="http://www.w3.org/2000/svg" xmlns:xlink="http://www.w3.org/1999/xlink" x="0px" y="0px"
	 width="803.17px" height="803.175px" viewBox="0 -487.825 803.17 803.175" enable-background="new 0 -487.825 803.17 803.175"
	 xml:space="preserve">
<g>
	<g>
		<path d="M495.458-124.821c13.088-25.675,11.134-53.87-1.682-77.071c-12.256-22.188-40.001-36.588-67.221-29.895
			c-33.303,8.197-27.428,68.789-33.697,93.217c-2.969,11.567,19.691,30.306,23.57,16.931c1.132-15.769-10.387-64.842,5.014-87.015
			s46.314,2.871,55.622,16.791c16.396,24.523,1.168,96.284-43.594,88.571c-11.858-2.044-12.657,14.775-0.769,16.825
			C460.799-81.623,483.183-100.75,495.458-124.821z"/>
		<path d="M493.866-53.32c-7.77-22.933-25.117-43.024-50.57-42.941c-10.772,0.037-8.282,16.476,2.464,16.44
			c40.562-0.133,40.908,63.487,23.273,82.567c-10.007,10.829-37.864,26.771-51.319,6.483c-10.171-15.344-7.047-33.027-8.826-49.506
			c-1.153-10.63-17.766-10.092-16.616,0.492c2.42,22.356-1.383,57.938,27.003,70.059c23.203,9.909,49.576,1.389,63.252-16.256
			C496.817-4.428,502.149-28.864,493.866-53.32z"/>
		<path d="M340.703-95.455c-42.641,0.484-35.565-67.387-14.804-87.891c11.782-11.638,42.919-28.882,54.685-7.353
			c8.896,16.287,3.545,35.178,3.489,52.744c-0.032,11.331,17.486,10.617,17.518-0.666c0.07-23.828,8.23-61.819-20.187-74.514
			c-23.226-10.378-51.934-1.067-68.367,17.876c-17.18,19.801-25.642,45.918-19.792,71.94c5.479,24.401,21.362,45.688,48.117,45.386
			C352.696-78.063,352-95.581,340.703-95.455z"/>
		<path d="M406.302-38.741c-0.886-11.249-30.022-22.47-29.131-11.174c1.389,17.517,12.066,297.539,4.428,314.451
			c-10.091,22.361-340.795,34.352-353.425,23.639c-70-480,98.693-354.61,314.142-365.336c11.271-0.728,10.632-18.251-0.668-17.521
			c-26.7,1.729-324.696-26.327-328.313-1.579C9.481-69.871-4.46,285.731,14.174,304.175
			c17.818,17.636,355.137-12.921,377.516-25.024C419.053,264.334,408.182-14.985,406.302-38.741z"/>
		<path d="M386.363-56.402c-4.333-0.749-8.445,2.152-9.191,6.486c-0.739,4.331,2.162,8.448,6.485,9.19
			c20.173,3.476,40.203-6.307,49.847-24.35c12.321-23.054,3.583-51.827-19.466-64.146c-23.05-12.319-51.823-3.591-64.144,19.458
			c-6.951,13.006-7.46,28.216-1.404,41.734c1.798,4.01,6.506,5.802,10.51,4c4.005-1.804,5.804-6.507,4.004-10.509
			c-4.032-8.993-3.697-19.099,0.915-27.728c8.185-15.313,27.303-21.112,42.615-12.927c15.314,8.186,21.119,27.305,12.935,42.618
			C413.069-60.6,399.756-54.096,386.363-56.402z"/>
	</g>
</g>
</svg>
