<?xml version="1.0" encoding="utf-8"?>
<!-- Generator: Adobe Illustrator 14.0.0, SVG Export Plug-In . SVG Version: 6.00 Build 43363)  -->
<!DOCTYPE svg PUBLIC "-//W3C//DTD SVG 1.1//EN" "http://www.w3.org/Graphics/SVG/1.1/DTD/svg11.dtd">
<svg version="1.1" id="Capa_1" xmlns="http://www.w3.org/2000/svg" xmlns:xlink="http://www.w3.org/1999/xlink" x="0px" y="0px"
	 width="803.17px" height="803.175px" viewBox="0 -487.825 803.17 803.175" enable-background="new 0 -487.825 803.17 803.175"
	 xml:space="preserve">
<g>
	<g>
		<path d="M495.458-124.821c13.088-25.675,11.134-53.87-1.682-77.071c-12.256-22.188-40.001-36.588-67.221-29.895
			c-33.303,8.197-27.428,68.789-33.697,93.217c-2.969,11.567,19.691,30.306,23.57,16.931c1.132-15.769-10.387-64.842,5.014-87.015
			s46.314,2.871,55.622,16.791c16.396,24.523,1.168,96.284-43.594,88.571c-11.858-2.044-12.657,14.775-0.769,16.825
			C460.799-81.623,483.183-100.75,495.458-124.821z"/>
		<path d="M493.866-53.32c-7.77-22.933-25.117-43.024-50.57-42.941c-10.772,0.037-8.282,16.476,2.464,16.44
			c40.562-0.133,40.908,63.487,23.273,82.567c-10.007,10.829-37.864,26.771-51.319,6.483c-10.171-15.344-7.047-33.027-8.826-49.506
			c-1.153-10.63-17.766-10.092-16.616,0.492c2.42,22.356-1.383,57.938,27.003,70.059c23.203,9.909,49.576,1.389,63.252-16.256
			C496.817-4.428,502.149-28.864,493.866-53.32z"/>
		<path d="M353.194-110.894c-371.528,74.63-338.02-114.931-323.02-350.931c81-26,300.249-14.057,313.82,14
			c29.18,33,30.881,304.683,30.825,322.25c-0.032,11.331,26.739-1.762,26.771-13.045c0.07-23.828-6.999-319.477-35.416-332.172
			c-23.226-10.378-333.566-17.976-350,0.968c-17.18,19.801-6.587,365.874-0.738,391.896c5.479,24.401,299.17,0.299,325.925-0.003
			C352.696-78.063,364.492-111.02,353.194-110.894z"/>
		<path d="M406.302-38.741c-0.886-11.249-18.41-10.631-17.519,0.665c1.389,17.517,8.159,35.942,0.521,52.854
			c-10.091,22.362-42.452,7.535-55.082-3.177c-22.254-18.866-34.461-86.01,8.094-88.762c11.271-0.728,10.632-18.251-0.668-17.521
			c-26.7,1.729-40.921,24.161-44.538,48.909c-3.854,26.39,6.563,51.789,25.198,70.232c17.818,17.636,47.147,24.741,69.526,12.638
			C419.198,22.28,408.182-14.985,406.302-38.741z"/>
		<path d="M362.01-100.221c1.578-4.104-0.467-8.703-4.572-10.278c-4.104-1.568-8.707,0.476-10.277,4.572
			c-7.337,19.11-1.642,40.662,14.179,53.634c20.213,16.574,50.138,13.605,66.708-6.604c16.571-20.21,13.612-50.132-6.597-66.705
			c-11.403-9.351-26.224-12.811-40.662-9.503c-4.283,0.982-6.957,5.251-5.969,9.53c0.989,4.28,5.252,6.959,9.528,5.974
			c9.606-2.204,19.453,0.092,27.02,6.296c13.426,11.01,15.392,30.891,4.383,44.317c-11.011,13.428-30.895,15.398-44.321,4.389
			C360.928-73.209,357.142-87.533,362.01-100.221z"/>
	</g>
</g>
</svg>
