<?xml version="1.0" encoding="utf-8"?>
<!-- Generator: Adobe Illustrator 14.0.0, SVG Export Plug-In . SVG Version: 6.00 Build 43363)  -->
<!DOCTYPE svg PUBLIC "-//W3C//DTD SVG 1.1//EN" "http://www.w3.org/Graphics/SVG/1.1/DTD/svg11.dtd">
<svg version="1.1" id="Capa_1" xmlns="http://www.w3.org/2000/svg" xmlns:xlink="http://www.w3.org/1999/xlink" x="0px" y="0px"
	 width="803.17px" height="803.175px" viewBox="0 -487.825 803.17 803.175" enable-background="new 0 -487.825 803.17 803.175"
	 xml:space="preserve">
<g>
	<g>
		<path d="M495.458-124.821c13.088-25.675,11.134-53.87-1.682-77.071c-12.256-22.188-40.001-36.588-67.221-29.895
			c-33.303,8.197-27.428,68.789-33.697,93.217c-2.969,11.567,19.691,30.306,23.57,16.931c1.132-15.769-10.387-64.842,5.014-87.015
			s46.314,2.871,55.622,16.791c16.396,24.523,1.168,96.284-43.594,88.571c-11.858-2.044-12.657,14.775-0.769,16.825
			C460.799-81.623,483.183-100.75,495.458-124.821z"/>
		<path d="M493.866-53.32c-7.77-22.933-25.117-43.024-50.57-42.941c-10.772,0.037-8.282,16.476,2.464,16.44
			c40.562-0.133,40.908,63.487,23.273,82.567c-10.007,10.829-37.864,26.771-51.319,6.483c-10.171-15.344-7.047-33.027-8.826-49.506
			c-1.153-10.63-17.766-10.092-16.616,0.492c2.42,22.356-1.383,57.938,27.003,70.059c23.203,9.909,49.576,1.389,63.252-16.256
			C496.817-4.428,502.149-28.864,493.866-53.32z"/>
		<path d="M340.703-95.455c-42.641,0.484-35.565-67.387-14.804-87.891c11.782-11.638,42.919-28.882,54.685-7.353
			c8.896,16.287,3.545,35.178,3.489,52.744c-0.032,11.331,17.486,10.617,17.518-0.666c0.07-23.828,8.23-61.819-20.187-74.514
			c-23.226-10.378-51.934-1.067-68.367,17.876c-17.18,19.801-25.642,45.918-19.792,71.94c5.479,24.401,21.362,45.688,48.117,45.386
			C352.696-78.063,352-95.581,340.703-95.455z"/>
		<path d="M406.302-38.741c-0.886-11.249-18.41-10.631-17.519,0.665c1.389,17.517,8.159,35.942,0.521,52.854
			c-10.091,22.362-42.452,7.535-55.082-3.177c-22.254-18.866-34.461-86.01,8.094-88.762c11.271-0.728,10.632-18.251-0.668-17.521
			c-26.7,1.729-40.921,24.161-44.538,48.909c-3.854,26.39,6.563,51.789,25.198,70.232c17.818,17.636,47.147,24.741,69.526,12.638
			C419.198,22.28,408.182-14.985,406.302-38.741z"/>
		<path d="M405.892-117.696c4.001,1.824,8.715,0.061,10.536-3.941c1.814-4.001,0.053-8.721-3.94-10.536
			c-18.631-8.48-40.487-4.101-54.394,10.904c-17.77,19.172-16.618,49.221,2.55,66.986c19.169,17.766,49.216,16.625,66.981-2.544
			c10.024-10.816,14.376-25.398,11.949-40.011c-0.722-4.334-4.82-7.263-9.15-6.536c-4.332,0.729-7.266,4.821-6.54,9.15
			c1.618,9.721-1.271,19.412-7.922,26.588c-11.802,12.734-31.766,13.492-44.5,1.689c-12.736-11.804-13.499-31.771-1.696-44.505
			C378.995-120.413,393.522-123.324,405.892-117.696z"/>
	</g>
</g>
</svg>
