<?xml version="1.0" encoding="iso-8859-1"?>
<!-- Generator: Adobe Illustrator 19.0.0, SVG Export Plug-In . SVG Version: 6.00 Build 0)  -->
<svg version="1.1" id="Layer_1" xmlns="http://www.w3.org/2000/svg" xmlns:xlink="http://www.w3.org/1999/xlink" x="0px" y="0px"
	 viewBox="0 0 512 512" style="enable-background:new 0 0 512 512;" xml:space="preserve">
<g>
	<g>
		<g>
			<path fill="#6f00ff" d="M119.467,128c-9.412,0-17.067,7.654-17.067,17.067c0,9.412,7.654,17.067,17.067,17.067s17.067-7.654,17.067-17.067
				C136.533,135.654,128.879,128,119.467,128z"/>
			<path fill="#6f00ff" d="M392.533,162.133c9.412,0,17.067-7.654,17.067-17.067c0-9.412-7.654-17.067-17.067-17.067
				c-9.412,0-17.067,7.654-17.067,17.067C375.467,154.479,383.121,162.133,392.533,162.133z"/>
			<path fill="#6f00ff" d="M392.533,349.867c-9.412,0-17.067,7.654-17.067,17.067S383.121,384,392.533,384c9.412,0,17.067-7.654,17.067-17.067
				S401.946,349.867,392.533,349.867z"/>
			<path fill="#6f00ff" d="M371.098,256C452.54,231.279,512,155.511,512,66.108c0-22.34-18.167-40.508-40.508-40.508
				c-89.114,0-164.676,59.059-189.662,140.083c-2.33-2.731-5.018-5.086-8.09-6.972c7.646-47.061,27.409-109.056,49.98-107.529
				c4.813,0.401,8.764-3.268,9.062-7.97c0.299-4.702-3.268-8.755-7.97-9.062c-42.948-2.688-62.165,87.706-67.567,119.578
				c-0.427-0.017-0.819-0.128-1.246-0.128c-0.427,0-0.819,0.111-1.246,0.128c-5.393-31.872-24.567-122.308-67.567-119.578
				c-4.702,0.307-8.269,4.361-7.97,9.062c0.307,4.702,4.343,8.371,9.062,7.97c0.256-0.017,0.521-0.026,0.768-0.026
				c22.195,0,41.634,61.039,49.212,107.554c-3.072,1.886-5.76,4.241-8.09,6.972C205.184,84.659,129.621,25.6,40.508,25.6
				C18.167,25.6,0,43.767,0,66.108C0,155.511,59.46,231.279,140.902,256C59.46,280.721,0,356.489,0,445.892
				c0,22.34,18.167,40.508,40.508,40.508c89.114,0,164.676-59.059,189.662-140.083c6.263,7.33,15.454,12.083,25.83,12.083
				s19.567-4.753,25.83-12.083C306.816,427.341,382.379,486.4,471.492,486.4c22.34,0,40.508-18.167,40.508-40.508
				C512,356.489,452.54,280.721,371.098,256z M221.867,283.691l-71.091,63.983c-0.708,0.64-1.51,1.067-2.338,1.425
				c3.217,5.205,5.163,11.281,5.163,17.835c0,18.825-15.309,34.133-34.133,34.133s-34.133-15.309-34.133-34.133
				s15.309-34.133,34.133-34.133c6.545,0,12.612,1.946,17.809,5.154c0.478-1.092,1.143-2.116,2.082-2.961l78.285-70.46h4.224
				V283.691z M221.867,247.467h-4.224l-78.285-70.46c-0.939-0.845-1.604-1.869-2.082-2.961c-5.197,3.209-11.264,5.154-17.809,5.154
				c-18.825,0-34.133-15.309-34.133-34.133s15.309-34.133,34.133-34.133s34.133,15.309,34.133,34.133
				c0,6.571-1.954,12.655-5.18,17.86c0.828,0.358,1.647,0.759,2.355,1.399l71.091,63.983V247.467z M273.067,224.026v23.441v17.067
				v23.441v36.292c0,9.412-7.654,17.067-17.067,17.067c-9.412,0-17.067-7.654-17.067-17.067v-36.292v-23.441v-17.067v-23.441
				v-36.292c0-9.412,7.654-17.067,17.067-17.067c9.412,0,17.067,7.654,17.067,17.067V224.026z M290.133,228.309l71.091-63.983
				c0.708-0.64,1.527-1.033,2.355-1.391c-3.226-5.214-5.18-11.298-5.18-17.869c0-18.825,15.309-34.133,34.133-34.133
				c18.825,0,34.133,15.309,34.133,34.133S411.358,179.2,392.533,179.2c-6.545,0-12.612-1.946-17.809-5.154
				c-0.478,1.092-1.143,2.116-2.082,2.961l-78.285,70.46h-4.224V228.309z M392.533,401.067c-18.825,0-34.133-15.309-34.133-34.133
				c0-6.554,1.946-12.629,5.163-17.835c-0.828-0.358-1.63-0.785-2.338-1.425l-71.091-63.983v-19.157h4.224l78.285,70.46
				c0.939,0.845,1.604,1.869,2.082,2.961c5.197-3.209,11.264-5.154,17.809-5.154c18.825,0,34.133,15.309,34.133,34.133
				S411.358,401.067,392.533,401.067z"/>
			<path fill="#6f00ff" d="M119.467,349.867c-9.412,0-17.067,7.654-17.067,17.067S110.054,384,119.467,384s17.067-7.654,17.067-17.067
				S128.879,349.867,119.467,349.867z"/>
		</g>
	</g>
</g>
<g>
</g>
<g>
</g>
<g>
</g>
<g>
</g>
<g>
</g>
<g>
</g>
<g>
</g>
<g>
</g>
<g>
</g>
<g>
</g>
<g>
</g>
<g>
</g>
<g>
</g>
<g>
</g>
<g>
</g>
</svg>
