<?xml version="1.0" encoding="utf-8"?>
<!-- Generator: Adobe Illustrator 14.0.0, SVG Export Plug-In . SVG Version: 6.00 Build 43363)  -->
<!DOCTYPE svg PUBLIC "-//W3C//DTD SVG 1.1//EN" "http://www.w3.org/Graphics/SVG/1.1/DTD/svg11.dtd">
<svg version="1.1" id="Layer_1" xmlns="http://www.w3.org/2000/svg" xmlns:xlink="http://www.w3.org/1999/xlink" x="0px" y="0px"
	 width="500px" height="500px" viewBox="0 0 500 500" enable-background="new 0 0 500 500" xml:space="preserve">
<g>
	<g>
		<g>
			<path fill="#4800A6" d="M116.667,125c-9.191,0-16.667,7.475-16.667,16.667c0,9.191,7.475,16.667,16.667,16.667
				s16.667-7.475,16.667-16.667C133.333,132.475,125.858,125,116.667,125z"/>
			<path fill="#4800A6" d="M383.333,158.333c9.191,0,16.667-7.475,16.667-16.667c0-9.191-7.475-16.667-16.667-16.667
				c-9.191,0-16.667,7.475-16.667,16.667C366.667,150.858,374.142,158.333,383.333,158.333z"/>
			<path fill="#4800A6" d="M383.333,341.667c-9.191,0-16.667,7.475-16.667,16.667S374.142,375,383.333,375S400,367.525,400,358.333
				S392.525,341.667,383.333,341.667z"/>
			<path fill="#4800A6" d="M362.4,250C441.934,225.858,500,151.866,500,64.559C500,42.742,482.259,25,460.441,25
				c-87.025,0-160.816,57.675-185.217,136.8c-2.275-2.667-4.9-4.967-7.9-6.809c7.467-45.958,26.767-106.5,48.809-105.009
				c4.7,0.392,8.559-3.191,8.85-7.783c0.292-4.592-3.191-8.55-7.783-8.85c-41.941-2.625-60.708,85.65-65.983,116.775
				c-0.417-0.017-0.8-0.125-1.217-0.125s-0.8,0.108-1.217,0.125C243.516,119,224.791,30.684,182.799,33.35
				c-4.592,0.3-8.075,4.259-7.783,8.85c0.3,4.592,4.241,8.175,8.85,7.783c0.25-0.017,0.509-0.025,0.75-0.025
				c21.675,0,40.658,59.608,48.059,105.033c-3,1.842-5.625,4.142-7.9,6.809C200.375,82.675,126.583,25,39.559,25
				C17.741,25,0,42.741,0,64.559C0,151.866,58.066,225.858,137.6,250C58.066,274.142,0,348.134,0,435.441
				C0,457.258,17.741,475,39.559,475c87.025,0,160.816-57.675,185.217-136.8c6.116,7.158,15.092,11.8,25.225,11.8
				s19.108-4.642,25.225-11.8c24.4,79.125,98.192,136.8,185.217,136.8C482.258,475,500,457.259,500,435.441
				C500,348.134,441.934,274.142,362.4,250z M216.667,277.042l-69.425,62.483c-0.691,0.625-1.475,1.042-2.283,1.392
				c3.142,5.083,5.042,11.017,5.042,17.417c0,18.384-14.95,33.333-33.333,33.333s-33.333-14.95-33.333-33.333
				s14.95-33.333,33.333-33.333c6.392,0,12.316,1.9,17.392,5.033c0.467-1.066,1.116-2.066,2.033-2.892l76.45-68.809h4.125
				L216.667,277.042L216.667,277.042z M216.667,241.667h-4.125l-76.45-68.809c-0.917-0.825-1.566-1.825-2.033-2.892
				c-5.075,3.134-11,5.033-17.392,5.033c-18.384,0-33.333-14.95-33.333-33.333s14.95-33.333,33.333-33.333S150,123.284,150,141.667
				c0,6.417-1.908,12.358-5.059,17.441c0.809,0.35,1.608,0.741,2.3,1.366l69.425,62.483L216.667,241.667L216.667,241.667z
				 M266.667,218.775v22.892v16.667v22.892v35.441c0,9.191-7.475,16.667-16.667,16.667c-9.191,0-16.667-7.475-16.667-16.667v-35.441
				v-22.892v-16.667v-22.892v-35.441c0-9.191,7.475-16.667,16.667-16.667c9.191,0,16.667,7.475,16.667,16.667V218.775z
				 M283.333,222.958l69.425-62.483c0.691-0.625,1.491-1.009,2.3-1.358c-3.15-5.092-5.059-11.033-5.059-17.45
				c0-18.384,14.95-33.333,33.333-33.333c18.384,0,33.333,14.95,33.333,33.333S401.717,175,383.333,175
				c-6.392,0-12.316-1.9-17.392-5.033c-0.467,1.066-1.116,2.066-2.033,2.892l-76.45,68.809h-4.125V222.958z M383.333,391.667
				c-18.384,0-33.333-14.95-33.333-33.333c0-6.4,1.9-12.333,5.042-17.417c-0.809-0.35-1.592-0.767-2.283-1.392l-69.425-62.483
				v-18.708h4.125l76.45,68.809c0.917,0.825,1.566,1.825,2.033,2.892c5.075-3.134,11-5.033,17.392-5.033
				c18.384,0,33.333,14.95,33.333,33.333S401.717,391.667,383.333,391.667z"/>
			<path fill="#4800A6" d="M116.667,341.667c-9.191,0-16.667,7.475-16.667,16.667S107.475,375,116.667,375
				s16.667-7.475,16.667-16.667S125.858,341.667,116.667,341.667z"/>
		</g>
	</g>
</g>
</svg>
