<?xml version="1.0" encoding="utf-8"?>
<!-- Generator: Adobe Illustrator 14.0.0, SVG Export Plug-In . SVG Version: 6.00 Build 43363)  -->
<!DOCTYPE svg PUBLIC "-//W3C//DTD SVG 1.1//EN" "http://www.w3.org/Graphics/SVG/1.1/DTD/svg11.dtd">
<svg version="1.1" id="Capa_1" xmlns="http://www.w3.org/2000/svg" xmlns:xlink="http://www.w3.org/1999/xlink" x="0px" y="0px"
	 width="63.55px" height="63.551px" viewBox="0 0 63.55 63.551" enable-background="new 0 0 63.55 63.551" xml:space="preserve">
<g>
	<path fill="#4800A6" d="M9.675,41.453c0,12.183,9.914,22.097,22.1,22.097s22.1-9.914,22.1-22.097
		c0-11.89-9.445-21.591-21.224-22.056V4.47l10.548,10.544c0.455,0.456,1.195,0.456,1.65,0s0.455-1.194,0-1.651L32.31,0.825l0,0
		L31.483,0l-0.825,0.825c-0.002,0-0.002,0-0.002,0L18.12,13.362c-0.456,0.455-0.456,1.193,0,1.649c0.457,0.456,1.195,0.456,1.651,0
		L30.315,4.471v14.954C18.808,20.187,9.675,29.763,9.675,41.453z M51.538,41.453c0,10.896-8.864,19.761-19.763,19.761
		S12.011,52.35,12.011,41.453c0-10.406,8.086-18.936,18.304-19.688v18.468c0,0.645,0.522,1.168,1.168,1.168
		c0.644,0,1.167-0.523,1.167-1.168V21.739C43.14,22.198,51.538,30.851,51.538,41.453z"/>
</g>
</svg>
