<?xml version="1.0" encoding="utf-8"?>
<!-- Generator: Adobe Illustrator 14.0.0, SVG Export Plug-In . SVG Version: 6.00 Build 43363)  -->
<!DOCTYPE svg PUBLIC "-//W3C//DTD SVG 1.1//EN" "http://www.w3.org/Graphics/SVG/1.1/DTD/svg11.dtd">
<svg version="1.1" id="Layer_1" xmlns="http://www.w3.org/2000/svg" xmlns:xlink="http://www.w3.org/1999/xlink" x="0px" y="0px"
	 width="496.39px" height="248px" viewBox="0 0 496.39 248" enable-background="new 0 0 496.39 248" xml:space="preserve">
<g>
	<g>
		<path fill="#6F00FF" d="M200.353,122.243c2.086,5.04,8.675,5.289,13.279,7.03c14.28,5.399,30.915,11.315,49.991,7.029
			c10.569-2.376,20.592-6.27,30.463-10.154c9.937-3.911,19.902-8.486,30.855-9.374c35.654-2.885,54.906,21.405,89.824,21.48
			c31.492,0.068,48.844-21.058,80.846-21.48c0,5.207,0,10.415,0,15.622c-34.803-0.74-51.396,22.285-86.703,19.918
			c-14.268-0.955-26.924-6.263-39.055-10.935c-12.174-4.688-24.586-10.085-39.445-10.153c-28.387-0.135-50.459,19.365-78.892,21.088
			c-30.711,1.862-53.186-18.713-80.454-20.697c-33.224-2.419-53.072,18.592-82.016,20.697
			c-34.218,2.492-55.172-20.996-88.265-20.697c0-4.947,0-9.895,0-14.841c32.355-0.602,49.491,21.083,80.844,21.48
			c31.945,0.406,49.508-18.937,80.454-21.48c0.071-1.66-1.8-1.943-2.734-2.734c-7.375-6.252-15.361-13.198-20.699-22.262
			c-6.18-10.492-8.426-25.415-5.077-41.008C138.855,26.161,157.2,6.77,185.512,4.687c29.743-2.188,49.818,13.063,58.192,33.587
			c9.93,24.341,3.383,54.152-12.107,69.518C224.3,115.031,213.777,120.6,200.353,122.243z M236.674,62.879
			c-1.014-25.261-20.525-45.713-46.085-45.695c-11.729,0.009-22.971,5.109-30.463,12.107c-6.936,6.479-13.932,18.163-14.841,30.854
			c-1.002,13.99,3.338,23.431,8.592,31.244c1.35,2.007,2.927,5.099,5.858,4.687c-3.173-23.689,12.104-36.412,31.244-36.321
			c20.005,0.094,36.026,15.39,31.635,37.102C230.979,89.812,237.26,77.486,236.674,62.879z M181.606,73.814
			c-3.541,1.711-9.017,8.555-9.764,12.107c-0.564,2.683-0.088,6.536,0.391,8.982c2.582,13.185,20.71,21.026,31.635,10.545
			c7.124-6.834,6.685-20.948,1.953-27.338c-3.025-4.086-9.636-6.582-16.403-5.858C186.477,72.566,183.873,72.719,181.606,73.814z"/>
		<path fill="#6F00FF" d="M89.827,58.583c2.98-2.083,4.534-4.381,7.42-5.858c7.716-3.95,16.675-2.624,21.871,1.562
			c15.714,12.66,11.132,51.668-9.374,54.677c-5.755-5.627,2.574-8.854,5.468-14.06c5.954-10.71,4.34-30.765-5.858-35.931
			c-19.998-2.083-11.6,29.394-13.279,45.304c-1.326,1.505-3.354,1.876-5.077,2.734c-1.624,0.808-3.229,2.499-5.858,1.953
			c-2.301-13.892,6.064-45.24-7.42-49.6c-5.696-1.842-11.005,1.109-13.279,5.077c-6.152,10.735-1.815,33.835,8.202,38.274
			c-0.535,2.59-1.762,4.487-3.125,6.249c-24.375-4.168-23.379-55.32,0.781-58.973C79.565,48.589,85.454,53.628,89.827,58.583z"/>
		<path fill="#6F00FF" d="M344.857,67.565c-8.107,10.378-19.838,17.135-29.684,25.776c1.896,3.224,3.244,6.898,7.031,7.42
			c8.164,1.125,15.16-10.913,23.434-10.545c-3.195,7.312-4.762,13.743-10.545,17.184c-7.449,4.431-17.314,2.506-22.262-1.562
			c-15.484-12.731-13.736-53.09,8.592-55.849C334.871,48.329,340.945,58.065,344.857,67.565z M313.613,82.406
			c5.967-3.292,10.846-8.111,15.23-12.498c1.49-1.491,3.871-2.725,4.297-5.077C325.339,50.289,307.675,67.834,313.613,82.406z"/>
		<path fill="#6F00FF" d="M396.019,105.839c-2.43,1.606-5.436,2.636-8.982,3.125c-1.617,0.055-0.406-2.718-0.781-3.906
			c-4.611,2.234-7.131,4.902-14.061,4.687c-23.541-0.73-20.279-39.645,0.391-40.227c5.451-0.153,8.162,2.193,12.889,4.687
			c0.971-13.65-9.402-16.97-22.262-15.622c1.238-2.667,2.967-4.845,3.516-8.202C398.14,45.22,399.382,78.7,396.019,105.839z
			 M370.244,80.063c-5.975,3.518-6.1,16.72-0.393,20.309c2.053,1.29,5.148,1.337,6.641,1.172
			c10.588-1.176,13.918-23.369-0.391-22.652C373.835,79.005,371.865,79.108,370.244,80.063z"/>
		<path fill="#6F00FF" d="M14.06,93.342c1.792,3.188,3.001,6.45,6.639,7.03c8.685,1.385,14.779-9.978,23.042-10.154
			c-2.803,8.284-3.882,12.448-8.592,16.013c-6.105,4.621-17.607,4.303-23.433-0.391C-1.659,95.063-2.649,61.734,13.279,52.725
			c3.028-1.713,8.559-3.589,14.45-2.344c3.025,0.64,6.383,3.701,8.983,5.858c2.821,2.342,7.291,5.791,6.249,12.107
			c-0.923,5.597-9.776,10.02-14.06,12.888C22.958,85.214,18.038,88.523,14.06,93.342z M11.716,82.406
			c8.063-4.695,15.388-10.128,20.309-17.965C22.188,50.248,6.929,68.573,11.716,82.406z"/>
		<path fill="#6F00FF" d="M435.464,108.964c-1.686-1.569-2.439-4.069-3.516-6.249c2.109-3.359,5.979-4.417,8.201-8.202
			c4.697-8,3.445-22.678,0-29.291c-2.037-3.911-5.398-7.498-11.717-6.249c-2.889,0.571-5.346,3.417-6.248,5.077
			c-3.553,6.531-2.734,18.903-2.734,29.682c0,3.69,0.852,8.271,0,10.545c-1.076,2.878-5.654,3.583-9.373,4.687
			c-0.98-0.499-0.398-2.633-0.391-4.687c0.098-23.199-3.527-51.481,19.137-53.896C460.242,47.034,459.804,103.424,435.464,108.964z"
			/>
		<path fill="#6F00FF" d="M496.39,84.75c0,3.645,0,7.291,0,10.936c-2.127,15.243-37.717,19.451-37.883,0.781
			c1.559-0.858,3.166-1.66,5.076-1.562c2.186,0.112,2.623,1.069,4.297,2.343c3.006,2.292,5.494,4.03,9.764,3.515
			c7.088-0.854,11.049-8.975,7.029-15.231c-1.598-2.488-4.395-2.718-8.201-3.515c-8.609-1.803-16.354-5.292-17.184-12.888
			c-0.736-6.729,2.373-10.197,6.248-13.669c3.447-3.088,8.561-6.454,15.23-5.077c2.785,0.575,11.016,7.704,8.201,10.936
			c-3.891,4.471-12.479-3.771-16.402-1.953c-1.242,0.576-2.529,2.911-2.732,3.906c-1.512,7.34,6.605,8.934,10.154,10.154
			C488.095,76.214,494.882,78.41,496.39,84.75z"/>
		<path fill="#6F00FF" d="M292.914,62.879c-3.636,0.009-5.053,2.237-7.812,3.124c-3.349-3.812-4.5-8.236-10.937-7.03
			c-13.99,2.622-15.517,44.798,3.517,41.789c7.838-1.239,7.769-11.231,18.354-10.545c-1.51,10.091-8.352,17.812-16.793,19.137
			c-32.434,5.092-33.71-55.287-7.029-58.583C283.693,49.354,290.647,54.182,292.914,62.879z"/>
		<path fill="#6F00FF" d="M495.611,149.189c-0.396,1.074,0.514,2.59,0,3.906c-0.836,2.135-12.32,3.414-14.844,3.905
			c-6.797,1.321-11.197,2.418-14.84,3.905c6.717,5.779,18.312,6.683,29.684,7.811c0,4.947,0,9.895,0,14.842
			c-19.779-1.832-34.766-8.457-49.992-14.842c-15.318,8.129-47.318,8.682-62.488,0c-14.213,4.237-28.006,13.51-45.303,14.842
			c-23.609,1.818-40.021-8.615-57.021-14.842c-9.368,3.391-18.948,6.568-31.635,6.641c-0.203,28.791-11.644,49.021-30.854,58.974
			c-19.259,9.978-46.848,6.978-62.098-3.906c-15.366-10.966-24.228-28.948-24.604-53.896c-3.868-4.334-11.587-4.815-16.793-7.812
			c-11.715,4.46-22.671,7.705-36.712,6.641c-9.275-0.705-16.269-5.688-24.605-5.858c-8.04-0.164-15.172,3.633-21.871,6.64
			c-9.229,4.144-16.477,8.146-30.073,7.42c-1.392-3.814-0.557-9.856-0.781-14.841c12.185-0.442,22.396-2.858,31.244-6.639
			c-7.762-5.127-19.242-6.534-31.244-7.421c0.084-2.129-0.269-4.695,0.391-6.249c27.603-2.021,48.402,18.346,75.376,20.309
			c29.872,2.175,54.56-18.587,83.578-20.698c4.166-0.304,8.295-0.23,12.107,0c26.104,1.582,47.418,18.777,73.814,20.698
			c34.293,2.496,55.377-23.53,91.78-21.09c13.111,0.88,25.232,5.601,36.711,10.154c14.062,5.579,26.627,12.214,45.693,10.936
			C448.14,166.848,464.359,147.529,495.611,149.189z M313.222,157.002c-4.502,1.225-8.901,2.688-11.717,5.469
			c13.092,6.442,35.346,7.562,49.99,3.123c3.994-1.211,8.104-1.986,10.545-4.687C349.322,155.316,328.615,152.812,313.222,157.002z
			 M135.912,162.079c15.168,7.897,47.51,9.256,60.926-1.172C181.212,153.531,149.814,152.23,135.912,162.079z"/>
	</g>
</g>
</svg>
