<?xml version="1.0" encoding="utf-8"?>
<!-- Generator: Adobe Illustrator 14.0.0, SVG Export Plug-In . SVG Version: 6.00 Build 43363)  -->
<!DOCTYPE svg PUBLIC "-//W3C//DTD SVG 1.1//EN" "http://www.w3.org/Graphics/SVG/1.1/DTD/svg11.dtd">
<svg version="1.1" id="Layer_1" xmlns="http://www.w3.org/2000/svg" xmlns:xlink="http://www.w3.org/1999/xlink" x="0px" y="0px"
	 width="498.585px" height="196.559px" viewBox="0 0 498.585 196.559" enable-background="new 0 0 498.585 196.559"
	 xml:space="preserve">
<g>
	<g>
		<path fill="#4800A6" d="M498.585,28.08c0,5.021,0,10.045,0,15.066c-1.139,2.306-1.139,9.338,0,11.644c0,7.077,0,14.153,0,21.23
			c-4.463,12.479-24.816,9.379-40.408,8.902c0-21.23,0-42.462,0-63.692c1.77-1.885,6.281-1.023,6.85-4.108
			C477.541,17.694,497.162,14.434,498.585,28.08z M496.531,47.941c0-8.492,2.805-19.184-0.686-24.654
			c-1.857-2.914-7.396-4.31-11.643-4.794c-6.469-0.74-15.83-0.509-19.861,1.369c15.051-0.265,25.213-0.171,26.709,11.644
			c1.475,11.634-0.793,31.27,0.686,43.146c-1.658,4.277-4.812,7.059-8.219,9.589c5.287-1.104,9.938-2.847,13.014-6.164
			C498.476,69.868,496.531,58.867,496.531,47.941z M471.875,28.08c0,0.686,0,1.37,0,2.055c0.088,11.611-0.115,25.82,0,36.983
			c0.035,3.233-1.631,8.694,2.055,10.272c4.701-0.603,3.277-5.936,3.428-9.589c0.521-12.883,0.139-28.56-0.688-39.037
			C475.062,28.546,474.099,27.683,471.875,28.08z"/>
		<path fill="#4800A6" d="M315.041,159.574c-1.287-0.996-0.084-4.482-1.371-5.479c-1.568,11.987-19.674,5.157-15.064-4.109
			c1.503-3.022,8.229-5.253,13.014-4.108c1.207-3.357,1.564-7.563,3.424-10.271c-0.135-2.146-4.48-0.086-4.109-2.739
			c0.613-2.865,7.6-6.174,8.904-2.055c13.895-8.723,29.842-3.67,32.189,10.957c1.811,11.313-4.24,23.122-18.492,23.286
			C325.751,165.144,322.091,161.485,315.041,159.574z M345.859,152.726c-2.141,3.153-3.484,7.052-6.85,8.902
			c-1.455,0.802-3.627-0.428-4.107,2.056c22.586,0.398,19.852-39.566-2.057-35.613C342.828,130.646,347.187,138.841,345.859,152.726
			z M315.041,134.234c2.27-0.24,2.971-2.051,4.109-3.424c-0.811-0.789-2.422-0.774-4.109-0.687
			C315.041,131.495,315.041,132.865,315.041,134.234z M321.205,158.89c3.461,3.426,9.752,4.193,14.381,1.369
			c5.51-5.734,5.242-21.463,0.689-28.079C320.767,123.343,314.261,146.933,321.205,158.89z M306.137,159.574
			c6.239,0.257,7.421-8.531,4.794-13.013c-1.143,0-2.283,0-3.424,0C309.906,151.499,306.305,157.401,306.137,159.574z"/>
		<path fill="#4800A6" d="M114.373,128.07c-0.715,3.166-4.01,3.753-6.164,5.479c1.95,7.086-1.694,17.141,0.685,24.655
			c0.641,3.012,4.881,2.423,5.479,5.479c-1.249,2.441-6.787,0.778-10.273,0.687c-3.291-0.089-8.804,2.632-8.218-2.056
			c0.498-3.086,2.135-1.062,4.794-1.37c0.8-9.946,1.032-18.909,0-28.079c-1.222-1.975-5.517-0.875-4.794-4.795
			C100.56,126.946,109.695,126.946,114.373,128.07z M104.785,128.756c-2.776,0-7.333-1.019-7.534,1.369
			c4.71-1.665,11.643,0.135,15.067,0C112.119,127.74,107.561,128.756,104.785,128.756z M107.524,133.55
			c-0.205-1.347,0.925-1.357,1.37-2.055C107.484,130.895,105.819,133.271,107.524,133.55z M107.524,141.083
			c-0.14-1.295,0.462-6.768-0.685-4.794C106.979,137.584,106.378,143.056,107.524,141.083z M109.579,160.944
			c-2.017-0.267-1.339-3.228-2.739-4.108C106.103,159.444,108.105,162.813,109.579,160.944z M113.003,162.999
			C109.237,161.226,109.537,165.421,113.003,162.999L113.003,162.999z"/>
		<path fill="#4800A6" d="M199.982,127.385c1.402,2.252,0.37,6.938,0.685,10.273c-4.716,0.835-5.234-2.528-6.164-5.479
			c-2.968,0-5.936,0-8.903,0c0.646,3.69-1.449,10.124,1.37,11.644c3.999,0.866,1.812-2.718,2.74-4.108
			c-0.199,0.3,3.151,1.07,2.055-2.055c5.73,1.135,2.271,11.053,3.424,15.065c-6.402,1.521-3.998-5.992-8.903-4.794
			c-2.871,7.838,1.421,16.473,8.903,11.644c4.143-2.675,1.676-4.216,4.794-5.479c5.733,0.043,2.372,7.351,1.37,10.272
			c-10.259-1.377-20.174,0.461-28.764,0c-1.796-2.297,2.731-2.847,3.424-4.795c-0.917-8.307,5.083-27.511-4.109-28.765
			c1.141-1.36-0.062-0.871,0-2.74C179.924,126.504,190.827,127.819,199.982,127.385z M174.642,129.44c7.077,0,14.154,0,21.231,0
			c1.57,2.082,0.811,6.494,3.424,7.533c0-2.739,0-5.479,0-8.219C191.772,129.148,178.402,127.934,174.642,129.44z M182.175,132.865
			c1.058,3.735-2.304,11.894,2.055,12.327c-0.634-2.275,1.351-12.983-0.685-14.382C183.213,131.619,182.815,132.362,182.175,132.865
			z M193.818,151.356c-0.465-3.873,1.171-9.848-1.37-11.644C191.319,143.056,189.432,150.135,193.818,151.356z M186.285,160.944
			c-1.727-3.39-3.062-9.729-1.37-14.382c-0.685,0-1.37,0-2.055,0C182.019,150.964,180.427,161.06,186.285,160.944z M199.982,162.999
			c1.63-1.565,1.985-4.407,2.055-7.533c-0.685,0-1.37,0-2.055,0C200.144,157.573,196.63,162.134,199.982,162.999z"/>
		<path fill="#4800A6" d="M417.085,163.684c-0.061-2.801,3.393-2.086,4.109-4.108c0.77-5.378-0.699-13.448-0.688-19.177
			c0.012-4.622,1.812-9.565-4.795-9.588c0.277-2.234,5.109,0.086,4.109-3.426c0.584-0.126,0.646,0.269,0.686,0.687
			c20.738-3.234,36.982,1.63,36.982,18.491C457.494,165.565,437.281,166.782,417.085,163.684z M449.275,139.028
			c2.283,6.165,1.156,16.244-3.426,20.547c-2.801,2.631-6.924,1.957-10.957,4.108c6.387-0.991,12.09-0.558,15.752-3.425
			c7-5.48,7.627-20.724,0-27.396c-6.006-5.252-14.521-4.478-23.971-3.424C435.412,129.983,446.335,131.099,449.275,139.028z
			 M426.673,131.495c-2.113,2.782,1.795,4.278,1.371,7.532c-2.971,4.785-2.971,17.132,0,21.916
			c3.939,0.061,7.908,0.147,10.957-0.686c5.139-4.961,5.535-14.606,3.424-23.285C437.669,135.036,433.144,129.462,426.673,131.495z"
			/>
		<path fill="#4800A6" d="M334.216,13.698c-1.688-0.091-3.299-0.104-4.107,0.685c0.094,1.275,0.449,2.289,1.367,2.739
			c2.855-0.113,2.391-3.546,4.109-4.794c0.996,0.375,3.541-0.801,3.426,0.686c1.121-1.39,3.059-1.965,2.738-4.795
			c1.143,0,2.283,0,3.426,0c0.121,3.775-1.459,5.849-2.74,8.22c-2.854-0.729-3.021-0.179-6.162,0
			c0.467,2.498,2.727-0.146,5.479,0.686c1.455,5.851,0.332,14.278,0.684,21.23c0.812,1.251,0.596-1.571,2.74,0
			c-0.107,0.796,0.15,1.22,0.688,1.37c-0.58,1.475-1.689,2.422-4.109,2.054c-0.191,13.662-0.418,27.355,3.426,36.982
			c-4.088-0.435-2.842,4.466-4.109,6.85c-6.828-0.021-13.973,0.274-19.861-0.686c-0.115-5.818-3.123-8.748-3.424-14.382
			c-1.779,3.93,0.52,11.937-2.057,15.066c-1.43,0.29-1.812-0.47-2.738-0.686c-2.143,1.107,2.723,0.852,1.371,3.425
			c-2.582-0.525-3.275,0.835-5.48,0.686c-0.541-2.369,0.762-2.893,1.371-4.109c-3.234,2.616-9.625-2.136-11.644,1.37
			c2.579,1.685,6.397,0.332,8.218,1.37c0.273,2.558-0.547,4.02-2.738,4.108c-0.532-0.608-0.735-1.546-0.686-2.738
			c-1.729,2.767-3.674,1.188-6.85,2.055c0-0.914,0-1.826,0-2.739c-3.842-0.268-8.215-0.004-8.902-3.425
			c-0.499-2.251,1.359-1.049,1.369,0c-0.328-3.753,4.697-2.15,4.109-6.164c2.084,0.656,4.097,1.384,6.164,2.056
			c0.441-13.229,1.401-30.833,0.685-45.886c0.601-2.198-1.774-1.421-2.056-2.739c2.861-4.658,0.271-6.591,2.056-12.327
			c0.913,0,1.825,0,2.739,0c0.088-1.229-0.838-1.445-0.687-2.74c0.913,0,1.826,0,2.739,0c1.031-1.239-0.037-3.465,0.688-4.794
			c0.432-0.794,2.33-0.091,2.738-0.686c0.35-0.51-0.43-1.562-0.688-1.37c2.318-1.733,4.555-1.465,6.852-1.369
			c-0.111,0.796,0.148,1.219,0.686,1.369c0.277,3.475-2.393,4-3.424,6.164c2.992,2.141,9.941,0.81,13.012,0
			c2.416,0.689-0.107,2.545,1.369,3.424c2.188-0.219,2.221-3.91,0.686-4.108c0.023-2.943,3.639-2.297,2.738-6.164
			c5.623,1.752,5.664-2.595,10.959-2.739C340.156,10.94,332.101,9.373,334.216,13.698z M308.876,10.958
			c0.15,4.09-0.881,5.104,0.686,7.534c-1.719,0.563-5.896-1.332-5.479,1.369c3.881,0,7.762,0,11.643,0
			c2.883,9.445,5.201,19.453,8.219,28.766c2.711-11.2-1.775-21.021-3.424-30.134c-3.289-0.594-9.133,1.368-10.273-1.37
			c-0.494-3.918,3.92-2.931,3.424-6.85C311.294,9.724,311.039,11.293,308.876,10.958z M332.847,11.643
			c-0.877-0.038-0.947-0.877-2.055-0.686C329.728,12.644,333.119,12.972,332.847,11.643z M341.75,15.067
			c0.164-0.979,1.129-1.154,1.371-2.055c-0.688,0-1.371,0-2.055,0C341.171,13.818,340.947,14.957,341.75,15.067z M334.216,18.492
			c-1.826,0-3.652,0-5.479,0c0.332,3.401,5.166,1.66,7.535,1.369c0.689,19.689-1.893,38.431,0.684,56.159
			c0.797,1.26,3.635,0.476,2.74,3.424c-2.186,0.586-2.604-0.596-3.426-1.369c0.365,2.648-1.225,3.343-0.688,6.164
			c1.371,0,2.74,0,4.109,0c0.914-2.969,2.104-5.658,4.109-7.533c-6.668-15.138-1.545-38.347-2.738-58.214
			c-2.219-0.295-5.926,0.9-6.164-1.37c0.125-2.157,3.688-0.877,3.424-3.424C335.228,13.567,334.421,15.729,334.216,18.492z
			 M324.628,28.765c0-2.74,0-5.479,0-8.22c-1.295,0.154-1.512-0.771-2.74-0.686C322.902,22.729,322.941,26.573,324.628,28.765z
			 M314.355,60.269c-0.207-3.445-0.918-6.389-2.738-8.219C311.816,55.503,310.55,60.42,314.355,60.269z M310.931,74.651
			c-0.045,4.193,0.449,10.495,4.109,9.589c1.76-4.86-0.391-13.631,1.369-18.491c-0.15-0.534-0.574-0.796-1.369-0.686
			C312.351,66.348,310.978,70.213,310.931,74.651z M293.125,83.554c1.018,0.581,1.474,1.724,1.369,3.424
			c2.368,0.542,2.894-0.762,4.109-1.37c-0.35-1.935-1.657-2.908-2.055-4.794C293.976,80.296,294.231,82.607,293.125,83.554z
			 M297.917,89.718c1.815-0.01,4.033,0.381,4.108-1.369C300.212,88.358,297.996,87.968,297.917,89.718z"/>
		<path fill="#4800A6" d="M401.333,69.857c0,0.913,0,1.826,0,2.739c-2.518-1.304-3.41,2.09-4.793-1.37
			c-1.777,1.189-1.26,4.677-4.795,4.108c0.186,2.696-0.264,4.758-2.055,5.479c0.652,2.083,4.092,1.388,3.424,4.794
			c0.602,2.403-1.775,0.712-2.057,0c-2.553,0.872-2.016,4.834-4.795,5.479c-3.752-0.966-2.865-2.496-6.848-0.686
			c1.59-1.578-1.268-2.208-0.686-4.794c-3.338-0.314-8.021,0.718-10.273-0.686c-2.914-0.401-1.324,3.698-4.793,2.739
			c0.18,2.331,3.084,1.938,4.109,3.425c-0.18,2.104-1.486,3.08-2.057,4.794c1.23,3.073,3.973,5.245,2.057,9.588
			c0.129,0.556,0.686,0.684,0.684,1.37c4.182,0.302,5.131-2.632,8.219-3.425c4.369-0.031,6.498,2.179,9.588,3.425
			c-2.062,3.266-8.654-4.722-12.328,0c0.592,1.694,4.771-0.2,5.48,1.369c-0.111,0.797,0.15,1.219,0.684,1.37
			c-0.264,2.702-2.211,3.724-3.424,5.479c-3.508-1.904-4.387-1.391-7.533-1.37c0.373,2.821,2.387,4.008,3.428,6.164
			c0.174,2.688-2.48,2.545-2.059,5.479c3.189,0.646,4.174-4.462,6.852-2.056c2.363-0.238-0.373,3.218,2.055,4.108
			c32.553-7.552,32.895,40.161,3.424,37.668c-3.416-0.288-5.143-2.306-10.271-2.055c-5.283-4.197-6.305-8.916-9.588-14.383
			c0.617-3.033,0.693-6.611,2.055-8.902c-7.455-2.36-12.525-7.107-17.121-12.328c0.42-5.059,6.555-4.401,9.588-6.849
			c1.508,0.546,2.734,1.375,2.738,3.425c1.689-1.735-1.15-4.75-2.055-6.164c-0.264-2.316,3.031-1.078,2.055-4.108
			c-0.154-0.985-2.043-0.238-2.055-1.37c-4.635,1.451-11.662,2.171-16.438,0c-1.592-0.725-2.186-3.965-4.109-3.424
			c0.541-3.568,3.018-5.203,5.48-6.85c-0.176-3.936,0.512-8.73-0.689-11.644c2.158-0.104,0.289,3.82,3.428,2.739
			c2.707-2.752-1.914-3.986-1.369-6.85c3.297-0.33,3.256,2.681,4.105,4.794c3.125-2.616,8.322,1.049,10.959-2.056
			c-1.033-1.705-4.621-0.856-6.164-2.055c0.146-9.081-0.141-15.874-6.164-19.861c-0.32-2.149,1.846-1.81,2.057-3.424
			c-1.111-1.627-1.539-3.938-2.738-5.479c2.49-4.441,12.852-10.992,15.066-2.056c1.973-0.082,4.48,0.374,5.479-0.685
			c-2.854-4.144,1.785-11.618-3.424-13.014c-1.08-3.136,2.844-1.268,2.74-3.425c-0.785-3.623-0.312-5.075,0-8.902
			c-0.566-3.087-5.506-1.8-8.904-2.056c1.006-5.571-2.818-6.312-2.055-11.643c1.229-0.087,1.441,0.838,2.736,0.686
			c0.895-3.581,1.826-3.076,2.059-7.533c1.141,0,2.283,0,3.424,0c-1.26,4.543-0.562,3.458,0.686,7.533
			c9.836,0.437,21.432-0.886,30.135,0.685c-2,6.831,0.91,11.227-1.369,16.438c-3.082,0.884-5.223-1.375-8.221,0.686
			c0.51,6.927,2.479,13.687,0,19.861c-0.318,2.146,1.725,1.931,2.74,2.739c-1.912,3.846-3.471,6.908-0.686,10.958
			c1.404,0.785,3.266-1.074,1.371-1.37c1.479-2.09,2.502,2.011,3.424,2.74C394.154,67.911,397.882,68.547,401.333,69.857z
			 M359.556,18.492c6.807,3.011,19.043,0.591,28.08,1.369c0.867,6.653-3.812,14.115,4.795,13.013
			c0.934-4.688-1.645-9.075,1.369-13.697c-8.703-1.569-20.297-0.249-30.135-0.685c-0.654-1.857-0.301-4.723-3.424-4.109
			C360.738,16.477,359.06,16.396,359.556,18.492z M379.417,28.765c1.105,14.042-0.148,27.423,0.686,42.462
			c2.225,0.396,3.188-0.468,4.795-0.686c0.152,1.295-0.771,1.511-0.686,2.74c2.023,1.822,2.012-2.543,5.479-1.37
			c0.064,1.075-0.092,2.375,1.369,2.055c2.834,0.553,3.516-1.051,3.426-3.424c-1.857-1.867-1.705,1.771-4.109,1.37
			c-0.434-2.533-3.846-2.089-6.848-2.055c1.777-1.801-1.107-0.539-0.688-2.739c1.938-2.174,0.951-7.27,3.426-8.903
			c-1.018-0.809-3.061-0.593-2.738-2.738c2.215-7.928,1.502-19.263-2.74-24.654c0.619-1.207,2.52-1.133,2.74-2.74
			C381.839,27.99,380.228,27.976,379.417,28.765z M353.392,53.42c0.451,2.288,2.131,3.35,2.74,5.479
			c3.969-1.267,8.631,3.929,9.588-0.686c-1.562-1.216-3.627-1.443-5.479-0.686c0.303-2.586-1.354-3.215-2.057-4.794
			C355.964,52.338,355.001,53.202,353.392,53.42z M354.078,64.378c0.914,0,1.826,0,2.74,0c-0.08-1.747-0.129-3.523-2.057-3.424
			C355.042,62.604,353.511,62.442,354.078,64.378z M366.406,106.156c1.654-4.778-0.533-6.979-2.057-10.273
			c0.57-1.714,1.877-2.688,2.057-4.794c-1.682-0.604-3.949-0.616-4.109-2.739c0.473-3.043,3.012-0.967,4.109-4.108
			c0.066-4.862-3.535-6.053-2.74-11.644c1.193,0.051,2.131-0.153,2.74-0.686c0-2.055,0-4.109,0-6.164
			c-0.996-1.06-3.506-0.604-5.48-0.686c2.238,3.546,2.973,9.068-2.055,10.272c0.285,4.053,1.617,7.059,3.424,9.588
			c-2.998,4.778-2.52,11.511,0,16.438c-3.457,4.625,0.547,10.51,2.74,13.698c-1.66,2.804,0.934,3.607,1.369,6.163
			c0.07,2.126-2.154,1.954-1.369,4.794c3.633-0.477,5.195-3.022,6.164-6.163c-3.604-2.682-4.49-9.229,0-11.645
			c2.59,1.062,1.959,5.349,5.479,5.479c0.607-1.445,2.084-2.023,2.057-4.108C375.648,107.257,368.853,109.922,366.406,106.156z
			 M366.406,78.075c-0.414-1.412,1.104-4.759-1.371-4.109C364.894,75.934,365.208,77.445,366.406,78.075z M391.746,84.24
			c-1.703-1.266-3.865-2.07-4.795-4.109c0.9-0.697,2.523-0.671,3.426-1.37c0.09-1.688,0.105-3.299-0.686-4.108
			c-2.096-0.497-2.016,1.183-4.109,0.686c-0.74,2.685-0.549,6.299-3.424,6.85c4.99,0.047-0.57,6.814,4.107,7.532
			C387.687,87.379,389.636,83.844,391.746,84.24z M349.968,91.772c0.922,1.817,2.291,3.188,4.109,4.108
			c0.977-0.914,0.977-3.88,0-4.794C351.984,90.591,352.062,92.27,349.968,91.772z M352.708,112.318
			c2.041-0.24,4.17-0.396,4.793-2.055c-1.885-1.061-0.066-4.11,0.686-4.795c-0.912,0-1.826,0-2.738,0
			C355.203,108.422,353.9,110.315,352.708,112.318z M356.818,121.907c-0.115,0.798-1.084,0.742-2.057,0.685
			c1.98,6.469,4.416,12.478,10.273,15.067C365.392,129.312,360.935,125.779,356.818,121.907z M372.57,127.385
			c1.967,0.546,3.635,1.388,5.479,2.056c-0.465-2.273-0.625-4.854-2.74-5.479C374.24,124.946,372.925,125.687,372.57,127.385z
			 M367.089,137.659c0.23-6.543,4.652-4.873,7.535-8.22c-1.639-1.33-6.535,0.6-6.164-2.738c-2.539,1.438-4.193,0.22-5.479-1.37
			C364.353,129.438,366.632,132.639,367.089,137.659z M402.019,136.974c-2.762-5.801-12.295-11.829-19.861-7.533
			c22.049-2.866,20.107,33.747,2.74,34.243C399.642,164.873,407.505,148.499,402.019,136.974z M374.625,160.26
			c12.428,9.352,20.254-12.321,16.436-21.23c-2.584-6.027-4.727-10.346-13.012-8.218C369.494,133.14,369.058,156.073,374.625,160.26
			z"/>
		<path fill="#4800A6" d="M287.646,118.482c1.818,4.116,4.268,7.604,4.109,13.697c-6.416,2.729-19.762,2.772-23.287-0.686
			c-1.373-0.302,2.662,3.122,0,4.108c-2.866,0.812-3.065-1.043-2.738-3.426c-1.531,0.296-0.277,3.375-0.686,4.795
			c5.656-1.749,15.943,1.195,24.656,0.687c-0.562,4.355,2.162,6.785,0,12.326c-0.723,3.004,2.314,2.25,2.055,4.794
			c-1.726,5.684-3.211,12.701,0.685,17.122c2.505,0.211,2.56-4.089,4.794-2.055c-1.74,2.819-0.473,5.591-3.424,6.163
			c-0.331,2.157,2.102,1.552,1.369,4.109c4.713,0.656,7.104-3.271,8.219,2.055c-0.578,2.279-5.417-0.092-8.219,1.369
			c-0.688-3.878-5.057-4.075-6.85-6.85c-0.746,2.712,2.241,9.729-0.686,13.697c-2.742-0.783,0.753-5.779-1.37-8.219
			c-2.728-0.442-2.753,1.812-5.479,1.369c-1.219-1.92-3.332-4.88-0.687-6.85c-0.995-0.374-3.539,0.802-3.424-0.686
			c-1.226,1.286-1.067,3.954-3.425,4.108c-2.141,0.313-2.189-1.464-2.055-3.425c-2.27-0.796-5.777,2.852-8.904,1.37
			c-0.154-0.074-0.618-1.358-0.684-1.37c-1.197-0.192-1.492,1.006-2.74,0.686c-0.446-0.113-0.59-1.187-1.369-1.369
			c-0.553-0.13-1.559,0.262-2.055,0c-0.44-0.23-0.4-1.93-0.687-2.055c-1.601-0.706-3.394-0.07-4.794-0.686
			c-3.578-1.567-5.444-5.158-7.534-8.22c0.082-1.974-0.374-4.482,0.685-5.479c-1.381-1.357-2.427-3.052-4.109-4.107
			c4.236-4.57,3.179-13.438,2.055-21.23c-1.12-1.295-2.677,2.764-4.794,2.739c-2.146-0.595-3.782-1.696-4.794-3.425
			c-1.905-2.472,1.552-0.807,2.055-2.738c0.288-1.107-1.317-2.312-0.685-3.426c-0.019,0.034,1.806,1.115,2.055,0.686
			c0.803-1.39-0.202-6.146,4.109-4.107c1.741,2.083-0.94,4.131-2.055,5.479c0.61,0.304,1.225,0.603,1.37,1.37
			c4.267,0.386,2.619-5.145,4.109-7.534c-1.485-2.099-3.855,0.657-6.164,0c1.28-3.621,0.277-5.885,2.054-8.218
			c-15.211,0.371-24.977-4.701-30.819-13.698c-3.269,0.529-4.408-1.069-7.534-0.686c-1.722-1.895-2.421-3.754-4.794-3.424
			c-1.406-3.16-3.802-5.33-6.164-7.534c2.231-1.239,3.593,0.899,4.794-1.37c4.537,1.398,4.958,6.913,9.588,8.219
			c-1.097-4.545-4.881-6.377-2.739-10.958c-3.768-0.342-8.974,0.755-11.643-0.686c-1.662,0.394,0.321,4.432-2.055,4.108
			c-2.513,0.229-3.514-1.052-4.109-2.739c1.355-3.458,4.897-5.395,2.055-9.589c-0.688-1.935-0.648,2.175-2.055,0
			c-0.514-2.226-1.24-4.238-2.055-6.163c-0.11-0.804-1.249-0.578-2.055-0.686c-1.09-6.215-5.894-8.718-10.273-11.644
			c-4.78,13.835,11.18,15.836,13.013,28.766c1.986,14.015-6.624,24.738-20.546,29.448c-0.188,2.7,2.928,2.096,2.74,4.794
			c0.614,5.865-2.536,7.967-5.479,10.272c-0.122,3.074-1.185,5.207-2.74,6.85c-1.508-0.546-2.734-1.375-2.739-3.425
			c-3.305-0.805-7.286-0.934-9.588-2.739c-1.44,2.671-0.343,7.876-0.685,11.644c5.065,0.956,4.963-3.255,6.164-6.163
			c5.055,2.063,2.787,9.177,2.74,15.066c-4.234,0.811-3.793-3.056-5.479-4.795c-0.914,0-1.827,0-2.74,0
			c-2.138,3.432,0.852,8.45-0.685,11.644c1.056,1.456,4.731,0.291,5.479,2.056c-0.638,7.165-13.146,0.681-19.176,3.425
			c-0.248-3.443,2.249-4.145,4.794-4.794c0-9.132,0-18.265,0-27.396c-1.121-3.018-5.018-1.046-4.109-4.794
			c-9.122,0.676-12.917-3.978-18.492-6.85c-1.952-5.146-2.736-14.301,5.479-13.014c0.908,1.146,1.814,2.296,1.37,4.796
			c2.855,0.344,3.021-2.002,6.164-1.37c0.843,2.354,3.793,2.6,2.739,6.85c4.846,2.08,8.302-1.854,13.013-2.056
			c4.098-5.263,11.862-6.856,18.492-9.588c0.632-3.145-1.713-3.311-1.37-6.164c7.302-0.916,10.514-5.923,13.013-11.644
			c-0.557-3.552-3.439-4.778-4.109-8.219c-7.408,7.323-25.448,6.71-32.188-0.686c5.964,6.361,3.191,21.143-6.849,23.284
			c-4.763,1.019-8.899-1.755-14.382-1.368c0.016-2.3-2.714-1.853-4.109-2.74c-1.03-1.938-2.77-3.166-2.74-6.164
			c-2.669-1.438-6.049-2.169-8.218-4.108c1.395-4.552-3.532-7.582-2.739-13.696c-2.555,0.412-3.36,2.575-6.164,2.738
			c1.121,2.34,0.803,5.899-0.685,7.534c-4.7-0.323-11.004,0.959-13.697-1.37c0-2.283,0-4.564,0-6.85
			c-0.134-2.943-3.454-3.064-4.109-5.479c-1.6-5.895,3.049-10.883,4.794-15.066c-1.187-1.359-5.359,3.719-8.219,0.686
			c-5.45,3.681-8.197,10.065-8.218,19.176c-6.737-10.279,4.037-23.038,15.067-23.286c0.252-2.715-0.628-6.562,0.685-8.219
			c-3.371,4.619-16.303-0.321-20.546,3.425c0.442,4.271,5.008,0.504,8.218,1.37c0.5,4.152-3.223,4.082-5.479,5.479
			c-2.432,2.362-3.966,5.622-7.533,6.85c2.144,4.246-3.21,9.755-1.37,13.697c3.562,0.594,2.855-3.081,4.109-4.795
			c0.482,4.083,5.409,3.723,4.794,8.903c2.792,0.509,2.358-2.208,5.479-1.37c0.979,4.402-1.557,5.292-4.109,6.164
			c2.669,7.629,13.117,13.928,8.218,24.654c7.244,9.976,17.94-2.371,19.861-10.272c0.068-4.602-1.364-7.627,0.685-10.958
			c6.128-2.113,9.986,4.604,9.588,11.644c-0.138,2.434-2.011,8.38-4.109,11.644c-0.635,0.986-2.446,1.558-3.424,2.738
			c-3.159,3.82-2.489,4.053-7.534,6.85c-7.373,4.089-15.495,3.266-22.601-2.738c-2.319,0.191-3.933,1.09-6.849,0.685
			c-0.718,11.253-0.562,24.88-0.685,36.3c5.274,2.13,13.6,1.337,19.861,0.686c3.53,5.346,2.19,16.352-2.055,19.86
			c-5.253-1.146-8.575-2.859-12.328,0.686c-3.003,0.722-2.25-2.315-4.794-2.056c-9.689-1.198-18.135,2.79-26.71,0.687
			c-2.774-1.122-3.152,3.623-4.794,1.369c-0.09-2.603,1.791-3.23,4.109-3.424c-0.397-2.682,0.589-3.978,1.37-5.479
			c1.59-0.55,3.889-2.194,5.479-0.686c-0.786-16.563-1.36-33.34-2.055-49.996c-1.251-2.173-4.461-2.388-6.849-3.424
			c-10.995-6.916-13.05-28.935,3.424-31.504c-3.227-12.613,7.902-36.604-8.903-37.669c0.59-4.242-2.172-5.134-3.424-7.533
			c-3.87-18.309,6.042-23.302,19.864-28.76c11.72-4.628,19.257-10.202,29.45-4.108c-0.342,7.419-4.159,11.365-10.958,12.328
			c-0.115,1.484,2.429,0.311,3.424,0.686c-0.33,3.552,0.737,8.5-0.685,10.958c-4.109,0-8.218,0-12.328,0
			c-1.44,2.669-0.343,7.875-0.685,11.644c9.123,2.369,21.438,4.938,32.874,2.738c0-8.218,0-16.438,0-24.654
			c5.087-1.534,12.965-0.276,19.176-0.686c1.006,8.354,4.3,14.42,5.479,22.602c1.594-6.168,0.231-15.292,0.685-22.602
			c5.04,0.21,11.27-0.769,14.382,1.369c-0.355,14.378,1.577,40.034,0.685,57.529c-0.417,8.171-0.927,16.069,7.534,17.122
			c2.919-5.15-2.021-8.553-1.37-14.383c1.184-10.608,6.362-21.287,12.328-27.396c-1.062-17.894-3.786-35.347,17.807-35.612
			c12.859-0.159,19.431,7.208,17.122,25.34c-3.97,1.967-10.599,1.271-16.437,1.37c-0.75-5.587,2.713-12.163-1.37-15.066
			c-2.198,4.575,0.834,11.636-0.685,15.752c14.652-0.377,28.366,4.552,36.298,13.012c2.359-11.338-1.388-28.782,2.055-39.037
			c5.022,0,10.045,0,15.067,0c0.783,8.348-1.647,19.909,1.37,26.024c1.804-7.954-1.351-18.199,1.37-26.024
			c5.537,0.397,12.705-0.833,17.122,0.686c-1.515,17.36,1.79,39.06-1.37,56.158c12.662,0.056,11.751,21.066,2.74,24.655
			c10.678,16.999,43.981-14.111,48.625,10.272c5.797,1.279,10.256,3.896,13.696,7.532c1.412-0.188,0.163-3.031,2.056-2.738
			c2.996,0.199,5.193,1.197,4.793,4.794C291.285,119.949,289.484,119.949,287.646,118.482z M39.723,10.273
			c-10.029,1.387-17.547,5.282-22.601,11.644c-4.703,7.042-0.576,21.633,6.849,20.546c0.474-3.777-2.709-5.263-3.424-8.218
			c-2.337-9.668,2.766-18.708,13.013-20.546c9.256-1.66,16.766,0.376,21.916-3.425c0.582-0.43,4.528-2.347,2.055-3.424
			c-3.137-0.287-7.731,0.882-8.903-1.37c2.982-0.441,7.742,0.894,9.588-0.686C50.83,2.742,43.262,6.219,39.723,10.273z
			 M43.832,17.807c0.925-1.586,5.151,0.129,5.479-2.056C47.183,15.718,41.97,16.12,43.832,17.807z M24.655,21.231
			c2.288-1.593,5.391-2.371,7.534-4.108C29.329,15.199,24.111,19.808,24.655,21.231z M40.407,17.122
			c-1.295,0.153-1.511-0.771-2.739-0.686C36.571,18.344,40.625,18.331,40.407,17.122z M162.999,19.861
			c-7.824-5.296-27.609-1.938-27.395,4.108c2.583-6.092,13.723-3.627,21.916-4.108c3.969,2.564,6.41,5.117,6.849,10.958
			c0.229,3.049-1.368,7.569,1.37,9.589C167.513,33.604,166.299,23.872,162.999,19.861z M28.765,21.231
			c4.053-1.507,9.979-1.976,15.067,0c1.987-2.122,8.416,0.198,9.588-2.738C44.998,19.201,33.156,16.491,28.765,21.231z
			 M91.088,19.861c1.372,6.936,3.254,11.985,4.794,17.808c0.899,3.397,0.834,7.806,3.424,10.272
			c0.943-0.883,0.678-2.976,0.685-4.794c0.209-2.141-1.979,1.741-2.055-0.686c-0.624-9.192-5.292-14.341-5.479-23.97
			c-5.708,0-11.415,0-17.122,0C77.939,21.594,86.226,19.016,91.088,19.861z M113.003,87.663c0.347-20.93-0.908-47.187,0-68.487
			c-2.923-0.232-10.68-2.303-12.328,0.686c3.733,0.146,8.234-0.472,10.958,0.686c-0.296,16.965,0.394,36.605,0,52.735
			c-0.052,2.118,1.225,5.683-1.37,6.849c-0.986,0.366-1.671-2.669-2.055-0.686C109.909,82.083,109.886,86.443,113.003,87.663z
			 M188.339,19.861c3.652,0,7.305,0,10.958,0c0.04,9.646-1.04,18.885,0,26.024c1.37,0,2.74,0,4.109,0
			c0.589-2.058-1.55-3.184-2.055-6.163c-1.128-6.661,1.126-16.648,0-21.23C197.376,19.311,190.066,16.794,188.339,19.861z
			 M206.146,19.861c4.329,0.236,9.952-0.819,12.328,1.37c0,17.808,0,35.612,0,53.42c-4.692-0.126-9.253-0.122-10.958,2.739
			c4.269-0.524,6.932-2.656,12.328-2.055c2.81-16.843,0.422-39.298,1.37-56.16C217.765,18.411,208.495,17.291,206.146,19.861z
			 M24.655,31.504c0.163-1.263,2.22-6.191-0.685-6.164C23.079,27.332,23.105,30.177,24.655,31.504z M145.877,47.256
			c3.852-0.027,7.661-0.101,8.903-2.738c-2.665,0.621-5.847,1.243-6.849-1.37c0.976-4.133,0.113-11.228-0.685-15.752
			C143.716,32.422,148.332,41.359,145.877,47.256z M26.025,40.407c0-1.826,0-3.652,0-5.479c-0.912,0.104-2.067-2.784-2.739-0.685
			C25.074,35.423,24.012,39.453,26.025,40.407z M24.655,47.256c2.347,0.695,1.631-5.146,0.685-5.479
			C24.218,43.62,26.271,45.289,24.655,47.256z M51.365,43.832c0.842-2.276-4.63-1.675-4.794-0.686
			C47.454,44.09,49.546,43.825,51.365,43.832z M43.832,45.201c-2.154,0.329-2.677-0.976-4.109-1.37
			C38.852,46.137,43.196,46.663,43.832,45.201z M75.335,53.42c-0.429-2.082,0.877-5.898-0.685-6.85
			C74.56,49.529,73.78,51.086,75.335,53.42z M58.899,52.05c0.488-2.239-4.495,1.078-6.164-0.685c-1.027-1.084,1.3-4.632-0.685-3.425
			C51.108,53.41,55.106,52.887,58.899,52.05z M139.713,49.996c1.509,0.289,3.777-2.052,2.055-2.74
			C141.49,48.576,139.113,47.797,139.713,49.996z M176.012,55.475c-4.428-3.337-9.405-6.524-14.382-7.534
			c-12.409-2.515-24.264,5.076-30.134,13.014c-0.853,1.151,0.105,3.661-3.424,3.424c-4.833,8.102-0.617,21.149-2.74,31.504
			c-11.657,2.94-16.437-6.816-18.491-15.752c-3.639,0.646-3.123-6.436-5.479-4.794c2.375,1.961,2.111,6.562,2.055,10.958
			c2.437-0.153,4.104,0.462,4.794,2.056c0.555,9.561,13.266,14.758,19.861,8.902c6.014-5.339,0.968-13.936-0.685-20.546
			c1.514-0.541,1.714-2.396,2.74-3.424c-2.06,0.689-1.214-1.526-1.37-2.74c3.073-13.437,14.294-20.632,28.08-20.546
			c14.138,0.088,22.207,10.372,29.45,17.122C185.625,61.829,180.196,58.628,176.012,55.475z M132.865,53.42
			c1.509,0.289,3.777-2.051,2.055-2.739C134.718,52.077,133.066,52.023,132.865,53.42z M39.723,55.475
			c0.049,3.394-0.064,7.611,0,11.644c0.065,4.071-1.288,8.987,2.054,10.272c3.174,0.436,1.734-3.745,2.055-6.164
			c1.114-2.539,3.054-4.251,2.74-8.22c1.833-3.418,6.369-4.132,6.164-9.588c-4.337,0-8.675,0-13.012,0
			C39.723,54.104,39.723,54.79,39.723,55.475z M199.297,84.24c2.812-1.209,2.495-5.499,2.74-8.219
			c0.609-6.774-1.264-15.139-0.685-21.916c-0.151-0.532-0.573-0.796-1.37-0.686C197.365,62.813,199.704,73.27,199.297,84.24z
			 M203.406,81.5c0.596-1.002,1.025-2.171,2.74-2.056c-4.288-7.278-0.4-18.639-2.055-25.34c-0.151-0.532-0.574-0.796-1.37-0.686
			C202.754,63.619,202.984,73.426,203.406,81.5z M149.302,62.323c3.977,0.78,0.354-6.039,3.424-6.164
			c2.531-0.438,6.822,0.887,8.218-0.686c-3.048-0.833-7.018-0.744-10.958-0.686C148.717,56.26,149.524,59.807,149.302,62.323z
			 M137.659,58.899c0.597-1.056,4.304-2.473,2.74-3.424C139.801,56.531,136.094,57.946,137.659,58.899z M147.247,64.378
			c0.638-1.309,1.973-8.047-0.685-8.219C144.805,56.639,146.907,61.79,147.247,64.378z M160.26,56.844
			c-2.119-0.034-6.599,0.277-7.534,2.056c3.881,0,7.762,0,11.643,0c0,3.651,0,7.306,0,10.958c2.108-0.51,1.316,1.879,3.424,1.37
			c0.041-2.659-3.511-7.91-1.37-13.014C164.953,57.843,162.606,56.883,160.26,56.844z M139.713,59.583
			c1.559,1.479,2.653-1.371,4.109-2.055C141.735,57.496,140.335,58.151,139.713,59.583z M186.285,61.638
			c-0.375-0.995,0.8-3.54-0.685-3.425C184.514,59.238,185.096,61.015,186.285,61.638z M74.651,62.323
			c-0.055,2.326-3.601,5.771-0.685,6.849c1.413-5.665,5.309-8.845,10.958-10.272C79.95,58.49,78.832,61.939,74.651,62.323z
			 M100.676,73.281c-0.843-8.518-8.38-10.341-13.697-14.383C91.243,63.995,97.907,66.689,100.676,73.281z M97.251,61.638
			c-1.692,0.258-2.026-4.278-3.424-2.056C95.348,59.497,95.683,64.033,97.251,61.638z M87.663,62.323
			c-3.77-3.868-11.615,1.494-10.273,4.794C78.391,63.206,84.247,61.672,87.663,62.323z M136.974,60.954
			c-0.047,0.008,0.042,0.636,0,0.686C133.722,65.355,140.263,60.373,136.974,60.954z M104.1,69.857
			c-1.771-1.22-2.358-7.198-5.479-4.794C101.12,65.555,102.326,70.915,104.1,69.857z M149.302,78.075
			c-1.671-2.397-2.88-11.542,2.739-8.219c-1.001-2.424-3.967-2.882-5.479-4.794C145.431,69.153,145.044,77.216,149.302,78.075z
			 M89.033,71.911c1.65,0.28,1.488-1.25,3.424-0.686c0.069-2.124-0.837-3.271-1.37-4.794c-0.685,0-1.37,0-2.055,0
			C89.033,68.259,89.033,70.085,89.033,71.911z M186.285,76.021c0.676-5.015-0.894-7.781-3.424-9.588
			C181.806,69.323,184.872,73.379,186.285,76.021z M87.663,77.39c1.497-3.184,0.128-6.048-0.685-10.272
			C86.109,70.299,86.573,74.334,87.663,77.39z M130.81,81.5c5.475,6.064,1.289,17.582-2.739,19.86
			c5.58-3.532,8.338-7.257,7.533-13.696c-0.373-2.979-3.226-5.265-3.424-8.219c-0.253-3.774,4.688-9.014-0.685-10.958
			C133.856,73.801,130.833,75.404,130.81,81.5z M75.335,74.651c-0.01-1.815,0.38-4.032-1.37-4.108
			C72.406,72.091,74.43,73.552,75.335,74.651z M101.361,82.185c0.007,1.004-0.259,5.604,0.685,3.424
			c0.539-7.387-2.157-11.541-5.479-15.066C96.674,75.913,100.009,78.057,101.361,82.185z M151.356,76.021
			c-0.353-1.932,1.222-5.788-2.055-4.794C149.328,73.483,149.021,76.073,151.356,76.021z M45.886,74.651
			c0.11-0.478-0.239-3.985-0.685-2.055C44.6,75.204,45.569,76.026,45.886,74.651z M163.684,80.814
			c1.388-0.896,0.94-3.625,2.739-4.108c0.574,2.622,1.254,5.138,4.109,5.479c1.375-3.211-5.23-3.729-4.109-8.902
			c-0.685,0-1.37,0-2.055,0C164.642,75.871,162.076,79.161,163.684,80.814z M54.104,82.869c2.688-0.279,5.67-0.266,6.164-2.739
			c-2.125-0.07-1.955,2.155-4.794,1.37c-0.484-1.833-1.446-6.729-3.424-4.794C53.87,77.625,54.513,79.722,54.104,82.869z
			 M96.566,82.869c1.025-0.014,2.801,2.544,3.425,0.686c-2.061-0.932-2.094-7.465-4.109-6.164
			C97.426,77.9,96.149,81.232,96.566,82.869z M205.461,86.293c-0.161,1.565,1.147,3.187,2.055,5.479
			c2.706,6.836,4.082,8.468,9.588,13.014c3.014,2.487,6.532,4.731,9.588,5.479c6.969,1.701,13.98-1.188,21.231-0.686
			c3.104-3.659,13.982-5.595,18.491-3.425c-7.521-11.814-28.628,6.396-37.667,0c-6.442,0.278-8.8-3.527-11.643-6.849
			c0.382-1.396,2.061-1.344,0.685-2.74c-2.669-0.982-3.635-3.67-6.849-4.108c-0.496-6.188,6.656-11.312,11.643-7.534
			c-0.128,4.666-3.631,5.957-5.479,8.903c2.1,0.362,3.604,3.587,5.479,2.055c2.912-4.766,5.642-10.5,2.055-16.438
			C216.332,75.516,206.169,79.42,205.461,86.293z M227.377,81.5c2.294,8.539,0.283-5.198-2.74-2.74
			C225.845,79.379,226.758,80.292,227.377,81.5z M87.663,82.869c0.091-0.9,0.104-4.955-0.685-2.739
			C86.888,81.031,86.875,85.085,87.663,82.869z M174.642,91.772c-1.645,4.972-10.125,6.279-9.588,10.958
			c3.006-0.413,6.382-6.227,8.903-2.738c-7.374,9.062-22.475,10.398-31.504,17.807c-0.495,4.618,0.572,11.279,4.794,8.903
			c-1.743-0.084-2.656-0.997-2.74-2.739c1.084-6.93,8.076-8.152,14.382-9.589c11.953-2.721,26.705-21.672,14.382-32.874
			C174.04,86.257,175.898,87.975,174.642,91.772z M35.613,84.24c-2.534-0.435-4.077-1.858-7.534-1.37
			C28.416,85.074,33.97,85.615,35.613,84.24z M186.969,87.663c0.142-1.969-0.173-3.479-1.37-4.108
			C185.116,85.168,184.028,87.898,186.969,87.663z M47.941,86.979c3.651,5.522,12.066,9.792,10.958,17.808
			c2.772-0.032,2.356,3.122,3.424,4.794c5.743-9.335-5.747-16.315-8.219-23.971c-5.325,0.976-10.345-1.965-14.382,0
			C42.291,87.302,44.179,87.882,47.941,86.979z M216.419,92.458c1.472-2.409,4.214-3.548,4.794-6.85
			c-0.795-0.574-1.836-0.902-3.424-0.686C219.186,88.862,214.933,90.703,216.419,92.458z M60.954,112.318
			c-4.133-8.423-11.761-13.352-17.122-20.546c-3.894-1.016-7.708-5.061-13.012-5.479c-6.38-0.504-10.413,1.837-13.698,6.164
			c-3.412,14.493,5.533,16.356,15.752,19.86c6.773,2.322,13.968,5.013,21.231,3.426c-1.768-5.661-9.203-2.807-13.697-3.426
			c-4.148-0.569-10.314-2.824-13.012-4.794c-5.034-3.672-10.302-17.597,1.37-17.808c7.29-0.131,15.395,5.123,20.546,11.644
			c1.252,1.585,1.394,3.926,2.74,5.479c1.322,1.527,4.316,2.428,5.479,4.109c0.708,1.023,0.456,3.187,1.37,4.108
			c3.001,3.028,10.141,6.243,13.697,6.163c10.833-0.247,25.601-19.647,16.437-28.765c0.102,15.314-8.646,24.94-21.916,24.654
			C65.03,115.547,64.579,112.347,60.954,112.318z M101.361,89.718c0.164-0.977,1.127-1.154,1.37-2.055
			c-0.943,0.029-1.504-0.322-2.055-0.686C100.792,88.003,100.431,89.506,101.361,89.718z M106.84,90.403
			c0.597-2.195-1.054-2.143-2.055-2.739C104.669,89.377,105.837,89.807,106.84,90.403z M49.996,91.772
			C50.806,95.977,53.293,93.49,49.996,91.772L49.996,91.772z M26.025,93.142c-8.734,10.188,13.366,19.749,24.655,16.438
			C45.719,101.278,36.981,93.174,26.025,93.142z M57.529,101.36c-1.13-2.294-2.024-4.823-4.794-5.479
			C53.4,98.641,55.727,99.738,57.529,101.36z M221.898,101.36C225.398,106.262,220.87,99.922,221.898,101.36L221.898,101.36z
			 M260.936,115.059c2.035-2.074,5.155-3.062,4.794-7.534C263.343,108.808,260.958,113.689,260.936,115.059z M252.716,110.264
			c2.513,0,5.021,0,7.535,0C259.863,106.082,254.142,109.237,252.716,110.264z M117.797,115.059
			c-1.203-0.892-0.987-6.723-2.739-4.795C116.755,111.078,115.071,115.273,117.797,115.059z M258.196,117.798
			c5.401,0.598,9.173-4.054,8.218-7.533C266.117,115.217,260.892,115.242,258.196,117.798z M272.578,112.318
			c8.961,1.802,14.28,10.789,13.014,20.547c2.123,0.068,3.271-0.838,4.793-1.369C290.569,121.598,279.671,107.809,272.578,112.318z
			 M41.777,116.427c-6.513,0.115-11.641-4.786-16.437-4.108C30.751,113.307,35.775,118.312,41.777,116.427z M231.486,113.004
			c3.176-0.208,5.929,0.006,7.534,1.369c-0.051-1.191,0.153-2.13,0.685-2.739C236.737,111.432,230.985,112.012,231.486,113.004z
			 M239.705,115.059c1.2,0.188,3.417-1.93,4.109,0c0.619,3.586-3.358,2.576-2.739,6.163c3.763-2.715,4.686-4.314,6.164-9.589
			C244.238,112.286,240.932,112.633,239.705,115.059z M250.662,113.004c1.42,0.407,4.5-0.847,4.795,0.686
			c0.979,3.03-2.316,1.792-2.056,4.108c0.396,1.659,2.587,1.521,4.108,2.056c-2.295-2.818,0.748-3.166-1.368-6.164
			c0.878-1.178,4.095-0.015,4.108-2.056C256.938,111.973,251.976,110.665,250.662,113.004z M254.087,121.222
			c-1.742,1.787,6.384-0.481,6.849,1.369c-0.789,8.344,1.897,20.161-2.056,25.341c-0.602,2.197,1.777,1.42,2.056,2.738
			c-1.608,0.22-1.533,2.12-2.739,2.74c4.623,4.944,2.299,12.696,2.739,21.916c0.765,1.353,5.661,2.501,6.164,0
			c-1.204-0.396-4.024,0.826-4.108-0.687c0.326-5.381-0.984-12.396,1.368-15.752c-4.264-8.428,2.111-23.643-2.739-30.819
			c0.59-2.606,1.854-4.536,1.371-8.218c3.619-0.957,6.979-5.789,6.848-8.22C266.9,117.142,262.563,121.253,254.087,121.222z
			 M120.537,114.373c3.003-0.722,2.25,2.315,4.794,2.055C125.43,114.088,121.584,111.395,120.537,114.373z M249.292,117.112
			c0.083,1.79,2.018,5.227,3.424,3.426c-3.943-1.401,2.619-5.85-0.687-6.164C252.353,116.521,250.31,116.304,249.292,117.112z
			 M291.069,118.482c1.498-1.578-0.202-3.82-2.739-3.424C288.152,117.291,289.144,118.354,291.069,118.482z M34.928,117.798
			c-1.48-0.573-2.336-1.772-4.794-1.37C29.919,118.295,34.114,119.224,34.928,117.798z M120.537,121.907
			c-2.256-0.511-4.803-4.295-6.849-2.74c1.549,2.918,3.979,5.796,8.218,4.108c-0.587,2.187,1.078,2.118,1.37,3.426
			c5.305-0.175,9.829-1.129,13.698-2.739c0-1.37,0-2.739,0-4.108c-3.355,0.981-5.898,2.776-9.588,3.424
			c-3.166-0.715-2.568-5.192-6.164-5.479c-0.457,0-0.914,0-1.37,0C119.364,119.506,122.867,120.612,120.537,121.907z
			 M43.147,119.853c-1.218-0.607-1.741-1.912-4.109-1.37C38.733,120.222,42.616,121.209,43.147,119.853z M154.096,127.385
			c1.598,0,3.196,0,4.794,0c1.437-3.826-0.245-8.94-4.794-8.902C156.322,121.597,157.892,124.875,154.096,127.385z M49.311,121.222
			c0.842-2.276-4.629-1.676-4.794-0.686C46.74,120.14,47.703,121.004,49.311,121.222z M147.247,124.646
			c0.996,1.06,3.506,0.604,5.479,0.686c0.341-3.31-2.453-3.481-5.479-3.424C147.247,122.82,147.247,123.733,147.247,124.646z
			 M31.504,128.756c0.113-2.396-0.182-4.385-1.37-5.479C30.087,125.606,29.921,128.056,31.504,128.756z M139.028,129.44
			c5.064-0.851,11.818,2.786,15.067-0.686c-1.99-2.089-5.336-0.138-8.218,0.686c-1.964-1.004-3.018-2.918-4.794-4.108
			C141.885,128.047,140.255,128.641,139.028,129.44z M236.28,127.385c0.457,0,0.913,0,1.37,0c0.038-0.876,0.878-0.947,0.685-2.055
			c-0.685,0-1.37,0-2.054,0C236.28,126.016,236.28,126.701,236.28,127.385z M263.675,130.811c3.156,1.566,4.035-4.93,1.369-4.795
			C264.512,127.538,263.605,128.687,263.675,130.811z M235.595,135.604c2.152-0.132,3.293-1.271,3.424-3.425
			c-2.194-0.317-2.415-2.606-4.794-2.739C233.949,132.707,237.792,132.263,235.595,135.604z M148.617,130.811
			c-1.204,0.395-4.024-0.828-4.109,0.686C145.613,132.663,148.038,132.122,148.617,130.811z M141.083,145.192
			c1.149-1.54-1.271-8.585,0.685-12.327c-0.078-0.836-0.205-1.621-1.37-1.369C139.734,134.414,138.379,143.412,141.083,145.192z
			 M149.986,133.55c0.685,0,1.37,0,2.055,0c0.088-1.229-0.68-1.603-2.055-1.369C149.986,132.636,149.986,133.093,149.986,133.55z
			 M155.465,136.974c0.251-1.184,2.071-4.232,0.685-4.794C154.513,132.551,152.728,136.271,155.465,136.974z M278.742,139.028
			c5.107-0.627-2.049-0.685-2.055-0.686c-2.393-0.366-5.939-1.713-8.219,0C270.981,139.117,278.694,139.034,278.742,139.028z
			 M284.221,152.041c0.8,1.026,1.979,1.675,2.055,3.425c-1.661,4.782-1.909,12.707,0.685,16.438
			c1.351,1.938,5.129,1.921,2.057,4.109c2.652-0.561,2.576,5.131,4.795,2.738c-2.809-0.942-1.425-2.515-1.37-5.479
			c-5.058-4.049-4.094-11.914-2.055-18.492c-4.863-3.889,1.676-11.63-2.739-15.752c-1.204,0.396-4.023-0.826-4.107,0.687
			C285.408,142.067,286.988,149.277,284.221,152.041z M149.986,151.356c-0.065-3.635,2.195-9.385-0.685-11.644
			C148.963,142.604,147.185,149.691,149.986,151.356z M31.504,152.726c1.198,3.137,0.51-6.545,0.685-8.902
			c-1.131-0.011-0.383-1.899-1.37-2.056C30.345,146.123,31.979,148.37,31.504,152.726z M141.083,161.629
			c1.614-0.015,2.017,1.181,4.109,0.687c-0.164,0.979-1.128,1.155-1.37,2.056c2.151,0.323,2.798-0.854,3.424-2.056
			c-1.69-1.276-5.982,0.047-6.164-2.739c1.601-3.684-1.423-9.071,0.685-13.013C137.892,147.888,139.566,159.101,141.083,161.629z
			 M266.414,158.205c0.688,0,1.371,0,2.055,0c0.32-4.2-0.045-7.718-4.107-7.534C264.555,153.673,263.651,157.772,266.414,158.205z
			 M48.626,171.218c6.463-1.419-0.97-9.571,2.054-13.696c-0.685,0-1.37,0-2.054,0C48.957,162.229,49.379,166.955,48.626,171.218z
			 M70.542,169.163c0.794-1.343,1.286-9.245,0-8.22C71.141,163.861,68.444,167.02,70.542,169.163z M25.34,169.848
			C24.905,174.872,29.26,165.177,25.34,169.848L25.34,169.848z M65.062,173.957c0.922,1.7,5.919,0.143,3.424-1.37
			C68.795,174.494,64.754,172.05,65.062,173.957z M269.154,176.012c2.008-0.048,2.543-1.565,3.424-2.739
			C271.13,171.906,268.337,173.055,269.154,176.012z M28.765,175.327c3.182-0.242,5.969-0.881,8.218-2.056
			C33.334,173.048,30.854,173.992,28.765,175.327z M272.578,178.751c2.336,0.517,2.672-2.616,0.687-2.738
			C273.048,176.938,272.289,177.319,272.578,178.751z M284.221,181.49c0.223-1.604,2.987-0.665,3.425-2.056
			c-0.919-0.45-1.275-1.464-1.37-2.739c-0.913,0-1.825,0-2.739,0C283.943,178.115,282.689,181.195,284.221,181.49z"/>
		<path fill="#4800A6" d="M444.48,85.609c-12.049,0.177-23.689-0.052-34.93-0.686c0-6.849,0-13.696,0-20.546
			c-3.74-1.252-6.973-1.035-10.957-0.686c0.176-2.688-2.477-2.545-2.055-5.479c0.842-0.299,1.406-0.876,1.369-2.055
			c5.895,1.869,7.484-4.715,12.328,0c0.266-12.594-0.217-24.441-0.688-36.299c3.156,0.646,4.521-0.503,4.795-2.739
			c7.076,0,14.152,0,21.23,0c-0.434-2.409-5.311,1.105-4.109-4.108c-0.104-3.049,2.777-0.41,3.424,0
			c1.283-1.229,0.818-4.204,2.74-4.795c3.156,0.27,4.357,2.492,4.793,5.479c-1.645,1.323-4.082,1.854-6.164,2.74
			c1.396,1.571,5.689,0.248,8.223,0.686c0,3.424,0,6.85,0,10.272c-5.104-0.534-8.172,0.964-13.016,0.686
			c-1.49,3.532-0.309,9.736-0.686,14.382c2.631,3.116,8.062,0.157,12.328,0.686c-0.742,4.396,2.111,5.192,1.369,9.588
			c-4.504,1.238-7.096,0.179-12.328,0.686c-2.82,4.939-0.721,14.804-1.369,21.916c4.564,0,9.133,0,13.697,0
			C444.48,78.76,444.48,82.185,444.48,85.609z M436.261,13.698c1.469,1.479,3.828,0.351,4.795-0.686
			c-0.303-1.979-1.443-3.122-3.424-3.425C437.81,11.593,436.083,11.692,436.261,13.698z M425.304,19.861
			c4.031,0.021,8.25-0.018,11.645,0c0,2.056,0,4.108,0,6.164c2.055,0,4.107,0,6.162,0c0-2.511,0-5.021,0-7.532
			c-9.359,0-18.721,0-28.078,0C416.769,21.02,421.658,19.842,425.304,19.861z M423.935,45.201c2.229,0.151,7.271,2.102,8.219-0.686
			c-4.459-1.271-2.592-11.164-2.055-16.438c-2.055,0-4.109,0-6.164,0C423.162,32.21,424.429,39.175,423.935,45.201z M436.947,51.365
			c1.707,0.575,3.67,0.896,6.164,0.685c0.736-3.705-1.857-4.078-1.369-7.533C434.58,43.626,435.162,46.838,436.947,51.365z
			 M423.935,76.706c1.826,0,3.652,0,5.479,0c0.852-6.374-1.08-15.645,0.686-22.602c-1.137-1.146-4.02-0.545-6.164-0.686
			C423.935,61.182,423.935,68.943,423.935,76.706z M403.388,59.583c1.662,1.46,2.926-1.63,6.164-0.686
			c-0.457-2.281-1.76-3.719-4.795-3.424C404.212,56.754,403.613,57.983,403.388,59.583z M436.947,84.24c2.055,0,4.107,0,6.164,0
			c0-2.512,0-5.022,0-7.533c-2.055,0-4.109,0-6.164,0C436.947,79.217,436.947,81.728,436.947,84.24z"/>
		<path fill="#4800A6" d="M273.949,13.013c0.536,26.399,7.309,46.565,9.588,71.227c-4.207,2.541-14.054,1.502-18.492,0
			c0.707-6.414-1.816-9.597-1.369-15.753c-4.93-0.972-4.061,4.283-4.795,7.534c-0.855,3.797-0.567,7.688-2.737,9.588
			c-5.866,0.387-10.5-0.459-15.752-0.686c0.142-5.391,2.68-10.368-0.685-13.696c0.609-0.532,1.546-0.735,2.739-0.686
			c0.667-7.323,2.192-13.789,3.424-20.546c-1.406-0.512-4.69,1.377-6.849,0c-1.025-4.449,3.597-3.252,3.424-6.85
			c1.668,0.387,3.523,0.586,3.424,2.738c1.762-3.341,2.04-7.728,2.74-12.327c0.638-4.195,0.228-9.774,1.37-13.014
			c0.486-1.381,3.934-1.428,2.057-3.424c4.202,0.361,9.914-0.783,13.012,0.686C268.824,17.074,269.192,10.647,273.949,13.013z
			 M268.468,22.601c3.553,14.477,5.355,31.434,7.535,45.201c0.435,2.75,0.879,6.15,1.369,8.903c0.428,2.406-0.031,7.156,3.424,7.532
			c2.326-5.102,0.207-10.979-0.687-16.438c-2.866-17.568-6.836-34.416-7.532-52.734c-0.146-0.77-0.761-1.065-1.369-1.37
			C267.972,15.983,271.841,19.173,268.468,22.601z M265.729,18.492c-4.108,0-8.22,0-12.328,0
			C254.642,20.865,264.438,20.569,265.729,18.492z M260.936,60.269c1.056-5.957-0.25-13.981-1.37-18.492
			C259.541,46.811,253.608,58.586,260.936,60.269z M242.444,49.311c3.272,0.211,3.44-4.324,0.685-4.794
			C242.91,46.125,242.047,47.087,242.444,49.311z M253.401,84.24c5.986-1.092,3.41-10.744,5.479-15.753c-1.144,0-2.283,0-3.426,0
			C256.934,74.189,252.619,77.264,253.401,84.24z"/>
		<path fill="#4800A6" d="M494.476,127.385c2.818,1.521,0.725,7.951,1.369,11.644c-5.406,0.158-4.785-5.715-7.531-8.218
			c-1.562,0.948-0.258,4.768-0.688,6.85c-2.389-1.035-2.75-4.1-4.109-6.164c-1.699,0.278-3.779,1.576-4.107,3.424
			c-1.178,6.626,8.959,5.958,13.697,9.589c7.896,6.051,4.311,16.543-3.426,20.547c-7.361,1.001-12.516-2.854-17.807,0
			c0.844-4.757-3.893-1.229-4.109-2.056c-1.377-2.047-0.387-6.462-0.684-9.588c2.195,1.229,2.344,4.504,4.109,6.163
			c1.568-1.396,0.244-5.688,0.684-8.219c6.877-0.257,3.561,9.678,10.273,9.588c1.395-0.2,1.344-1.854,2.736-2.055
			c1.834-12.229-12.268-9.844-16.436-16.438c-0.736-1.163-1.914-6.748-0.688-8.903C471.759,126.539,485.4,129.454,494.476,127.385z
			 M490.367,132.18c1.818,1.377,1.66,4.73,4.107,5.479c-0.438-2.758,0.893-7.283-0.684-8.903
			C492.832,130.08,490.539,130.068,490.367,132.18z M473.929,141.083c1.002,0.184,3.145-0.038,4.795,0.686
			c-0.01-0.004,1.396,2.569,2.055,2.739c0.695,0.18,1.895-0.778,2.055-0.687c0.809,0.476,1.008,1.979,2.055,2.74
			c1.562,1.138,3.236,1.151,3.428,1.369c0.441,0.512-0.316,2.123,0,2.738c1.383,2.688,3.396,2.729,3.424,4.795
			c0.043,3.552-2.039,6.874-8.221,6.85c1.246,4.2,6.213,1.411,7.533,0.686c3.17-1.74,5.645-7.905,5.48-10.272
			c-0.723-10.502-18.131-7.624-18.492-17.808c0.449-1.834,1.963-2.604,2.74-4.107C473.72,129.284,472.232,136.027,473.929,141.083z
			 M473.246,160.944c0.752,1.342,5.434,2.273,6.848,0.686c-5.164-0.085-3.094-7.406-6.848-8.902
			C473.246,155.466,473.246,158.205,473.246,160.944z M488.312,160.26c1.482-0.897,3.664-5.707,0.686-6.849
			C489.923,156.431,487.175,159.298,488.312,160.26z"/>
	</g>
</g>
</svg>
