<?xml version="1.0" encoding="utf-8"?>
<!-- Generator: Adobe Illustrator 14.0.0, SVG Export Plug-In . SVG Version: 6.00 Build 43363)  -->
<!DOCTYPE svg PUBLIC "-//W3C//DTD SVG 1.1//EN" "http://www.w3.org/Graphics/SVG/1.1/DTD/svg11.dtd">
<svg version="1.1" id="Layer_1" xmlns="http://www.w3.org/2000/svg" xmlns:xlink="http://www.w3.org/1999/xlink" x="0px" y="0px"
	 width="500px" height="399.742px" viewBox="0 0 500 399.742" enable-background="new 0 0 500 399.742" xml:space="preserve">
<g>
	<g>
		<path fill="#4800A6" d="M118.562,0c0.929,0,1.857,0,2.786,0c5.581,6.492,13.488,10.658,17.026,19.193
			c-1.919,4.176-4.568,7.044-8.049,10.525c-2.516,2.516-6.643,8.119-10.834,8.048c-1.787-0.03-4.477-1.986-5.882-3.095
			c-1.967-1.553-3.454-2.951-4.953-4.334c-2.244-2.07-7.452-7.377-7.43-11.144c0.022-3.682,5.051-8.147,7.43-10.525
			C112.303,5.021,115.8,3.029,118.562,0z"/>
		<path fill="#4800A6" d="M241.457,0c0.825,0,1.651,0,2.477,0c12.714,11.749,15.148,35.4,14.239,59.745
			c7.271-2.922,8.589-11.565,17.955-11.763c5.171-0.109,9.163,3.282,11.763,5.881c9.25,9.25,18.447,16.757,20.741,32.813
			c1.518,10.614,0.261,22.597-0.31,34.052c-0.584,11.706-1.338,24.083,2.167,32.813c2.083,5.19,6.113,8.164,7.736,12.073
			c-7.148,6.779-14.76,13.101-23.217,18.574c-10.476-8.885-14.188-22.655-14.856-42.101c-0.452-13.068-0.627-28.312,0-42.1
			c0.229-5.049,0.645-9.787-0.619-13.311c-1.182-3.291-5.74-8.27-9.287-8.358c-4.154-0.104-11.426,7.917-12.383,10.834
			c-1.905,5.811,0,14.446,0,22.288c0,23.534,0.839,48.6-0.619,69.961c-9.273-0.219-19.533,0.547-27.86-0.619
			c0-24.415,0-50.639,0-77.7c0-12.152-0.607-26.149,0-39.004c0.603-12.767,0.757-26.021-2.786-35.6
			c-1.486-4.015-4.208-6.88-6.811-10.215C226.63,11.795,234.863,6.717,241.457,0z"/>
		<path fill="#4800A6" d="M169.639,4.953c0.206,0,0.413,0,0.619,0c11.799,8.529,16.002,24.653,15.787,45.196
			c6.621,1.222,15.322,0.362,22.908,0.619c0,8.461,0,16.922,0,25.384c-7.43,0-14.859,0-22.289,0
			c0.047,19.028-2.074,38.141-0.929,56.03c1.14,17.799,12.76,25.489,24.146,33.123c-0.97,2.418-3.416,3.671-5.263,5.262
			c-5.32,4.585-11.191,9.446-17.335,13.621c-13.46-8.726-25.575-18.312-29.099-36.528c-1.879-9.715-0.929-20.909-0.929-31.885
			c0-12.933,0.952-25.615,0.31-39.004c-2.334-1.38-7.42-0.009-10.215-0.929c-0.715-5.27-0.109-11.861-0.31-17.645
			c3.387-1.05,6.861-2.013,10.525-2.786c0.25-13.974-3.424-24.024-9.596-31.575c0.837-2.225,2.948-3.789,4.644-5.262
			C157.869,14.008,164.182,9.697,169.639,4.953z"/>
		<path fill="#4800A6" d="M492.2,78.009c-6.981,5.917-14.606,11.19-21.359,17.335c-5.364-2.589-8.053-16.977-16.097-17.026
			c-4.839-0.03-7.124,4.916-9.597,8.358c2.51,5.972,7.657,9.436,12.383,12.692c9.728,6.707,20.264,12.518,28.17,21.979
			c5.733,6.864,11.563,17.516,6.188,28.789c-3.142,6.589-8.743,11.331-14.549,17.646c-5.595,6.086-10.722,12.151-17.336,14.859
			c-2.791,1.143-7.225,1.848-11.144,0.929c-14.787-3.469-24.692-17.192-31.887-28.479c5.4-7.134,14.66-12.36,21.052-17.955
			c2.982,2.004,4.226,5.084,6.811,8.977c1.888,2.843,4.616,6.924,8.049,7.43c3.26,0.479,6.893-1.451,9.286-3.096
			c1.896-1.3,5.546-4.075,5.572-6.811c0.042-4.242-10.185-9.292-14.549-12.073c-5.844-3.72-10.712-7.628-15.169-11.454
			c-8.467-7.266-19.975-18.221-19.502-33.433c0.326-10.603,7.156-17.064,13.001-22.907c5.829-5.83,10.761-12.504,20.122-15.478
			c6.349-2.017,13.39,1.763,17.645,4.333C479.091,58.546,487.272,67.558,492.2,78.009z"/>
		<path fill="#4800A6" d="M365.591,48.601c8.109-1.083,16.866,6.651,21.669,11.454c7.06,7.058,13.214,11.928,16.406,20.431
			c3.802,10.123,3.832,23.824,3.405,37.147c-0.473,14.707-0.435,28.838-5.572,38.386c-3.727,6.923-9.256,11.225-14.549,16.406
			c-5.027,4.921-12.088,11.78-19.502,11.764c-8.921-0.021-14.224-7.787-19.812-13.002c-6.126-5.714-12.699-9.985-15.787-16.716
			c-2.351-5.123-2.298-12.025-2.786-18.264c-1.037-13.287-1.898-25.875-0.617-40.243c0.617-6.942,1.549-13.201,3.403-17.335
			c2.569-5.724,8.646-12.201,14.239-17.335c5.899-5.415,11.057-10.379,18.574-12.692C364.935,48.517,365.307,48.639,365.591,48.601z
			 M365.9,76.771c-2.951,2.958-6.818,5.354-8.668,9.287c-3.886,8.258-2.835,32.013-2.167,44.577
			c0.271,5.101,0.548,10.575,1.855,14.24c1.177,3.292,6.806,11.173,10.835,11.145c4.996-0.036,10.167-10.346,11.146-14.24
			c1.803-7.188,1.236-20.265,1.236-32.194c0-17.958-2.239-29.202-13.311-33.433C366.463,76.302,366.127,76.482,365.9,76.771z"/>
		<path fill="#4800A6" d="M106.179,50.768c8.977,0,17.955,0,26.932,0c1.334,25.131-1.525,55.794-0.31,82.343
			c0.648,14.146,2.752,24.962,10.525,32.194c-6.772,6.951-14.23,13.218-22.907,18.264c-15.276-9.958-15.478-33.744-15.478-58.197
			c0-24.081,0.632-51.057,0.31-73.676C105.424,51.251,105.733,50.941,106.179,50.768z"/>
		<path fill="#4800A6" d="M34.671,64.079c2.448-0.178,3.337-3.002,4.953-4.644c3.21-3.262,9.783-9.724,14.859-11.144
			c6.269-1.754,10.718,2.631,14.24,5.881c2.575,2.377,4.571,4.87,6.811,7.43c4.122,4.712,9.265,10.269,12.073,16.407
			c3.576,7.817,3.657,20.873,3.715,31.575c0.095,17.589,1.654,35.427-5.263,46.744c-2.217,3.626-4.785,6.85-7.429,9.906
			c-2.708,3.129-5.266,6.35-8.049,9.596c-3.516,4.101-7.468,8.771-14.24,8.358c-8.401-0.513-10.169-8.427-16.716-11.454
			c-1.235,20.074-1.604,40.918,10.216,50.148c1.889,1.476,3.92,1.724,5.572,3.405c1.263,1.287,1.607,3.281,2.786,4.645
			c1.214,1.402,3.74,2.533,5.572,4.023c1.919,1.562,3.498,3.586,5.262,4.334c0.867,0.367,2.851,0.471,4.024,0.929
			c1.218,0.476,2.127,1.747,3.715,2.478c1.2,0.552,2.76,0.395,4.024,0.93c2.674,1.132,4.566,3.962,6.81,4.023
			c3.402,0.095,5.572-3.631,7.43-6.502c1.71-2.645,3.348-6.213,5.572-8.356c2.713-2.616,7.129-3.033,8.049-7.431
			c3.414-0.277,4.777-3.769,7.12-5.57c1.694-1.307,4.479-2.771,6.811-4.023c6.873-3.688,17.016-4.715,26.932-5.264
			c13.278-0.734,26.458,1.712,33.742,8.668c3.899-1.494,6.146,2.712,9.287,3.404c1.354,0.299,2.903-0.402,4.334,0
			c1.794,0.505,3.207,2.965,4.953,4.334c2.04,1.6,3.982,2.459,5.572,3.715c13.479-8.104,38.188-7.521,55.102-13.001
			c1.948-0.632,3.887-2.017,5.883-2.478c3.602-0.834,8.092-0.434,12.072-1.237c1.622-0.329,3.659-0.761,5.262-1.238
			c1.681-0.501,3.137-1.651,4.646-1.856c1.66-0.228,3.296,0.311,4.953,0.311c8.474,0,16.767-2.573,26.003-2.477
			c4.388,0.045,8.854,0.566,13.312,0.929c4.562,0.368,9.151,0.058,13.62,0.618c2.863,0.358,5.896,1.686,8.668,2.478
			c6.936,1.981,14.373,3.806,20.433,7.12c1.029,0.562,1.989,1.758,3.096,2.167c2.235,0.826,4.894,0.392,7.12,1.237
			c3.967,1.511,7.582,6.299,10.523,9.597c0.561,0.626,1.21,0.921,1.856,1.548c0.531,0.516,0.77,1.467,1.238,1.857
			c2.034,1.693,5.806,4.057,8.668,4.022c2.699-0.03,4.062-2.434,6.811-1.548c6.712-5.566,17.9-6.656,23.836-13.002
			c7.916-0.955,11.162-7.182,19.193-5.881c5.232,0.847,9.229,5.298,16.097,4.333c1.083,0.626,1.637,1.826,2.786,2.478
			c4.438,2.516,11.331,2.096,13.62,6.812c-3.498,4.354-9.091,6.567-14.549,9.286c-3.659,1.824-7.938,3.789-11.766,6.191
			c-1.217,0.764-2.215,2.069-3.403,2.478c-1.521,0.518-3.407,0.145-4.952,0.618c-2.749,0.845-6.036,3.22-8.979,4.644
			c-9.147,4.431-19.28,8.037-29.099,11.765c-1.707,4.668-1.295,12.569,2.167,14.857c-0.753,1.382-1.396,1.714-1.548,3.096
			c-0.203,1.825,1.309,3.742,1.237,5.572c-0.052,1.327-1.125,3.193-1.856,4.645c-0.103,0.201-0.147,0.694-0.312,0.93
			c-0.451,0.648-1.456,2.846-1.855,4.023c-0.426,1.254-0.452,2.743-0.929,3.715c-0.061,0.119-0.462,0.295-0.619,0.619
			c-0.624,1.28-1.877,3.2-3.097,4.023c4.832,7.755,13.276,11.898,23.218,14.549c2.869,5.271,11.244,5.812,15.788,10.525
			c2.489,2.584,5.23,6.104,10.215,6.5c0.35,2.334,2.607,2.757,2.786,5.263c7.027,3.601,9.209,12.049,14.857,17.026
			c0.141,1.271-1.31,0.961-0.929,2.477c1.533,2.387,3.41,4.432,4.644,7.119c-2.269,5.279,0.188,11.336,0,17.336
			c-1.048,0.307-1.488,2.054-2.167,2.477c-2.782,1.738-9.087,0.381-14.238,0.93c-1.578,0.168-3.07,0.996-4.334,0.93
			c-1.508-0.081-2.99-1.648-4.645-1.855c-1.399-0.178-3.145,0.523-4.644,0.617c-6.78,0.422-12.405-0.906-16.407-3.096
			c0.304-1.855-0.271-3.68-0.311-5.264c-0.044-1.865,0.638-3.693,0.311-4.952c-0.368-1.418-1.642-1.63-2.478-2.478
			c-1.025-1.043-1.407-1.646-2.167-2.787c0.132-2.918,1.023-4.478,0-6.81c-0.076-0.179-0.16-0.716-0.311-0.929
			c-0.266-0.383-0.585-0.553-0.929-1.238c-0.271-0.54-0.422-0.964-0.93-1.548c-0.847-0.978-1.47-3.486-2.166-5.263
			c-3.595-2.701-9.148-3.44-11.765-7.121c-2.463-0.219-4.755-0.609-7.12-0.928c-2.265-7.277-18.543-14.888-22.598-4.334
			c-7.304,4.562-19.63,4.104-23.526,12.071c-3.769,0.771-7.53,1.549-9.597,4.022c-8.671-1.479-14.212,4.07-21.359,5.265
			c-3.757,0.627-8.503-0.101-11.145,2.167c-6.767-0.043-13.191,1.312-19.502,1.855c-6.77,0.582-14.145,1.307-20.432,0.311
			c-2.068-0.327-3.838-1.752-5.883-1.855c-2.048-0.105-4.092,0.756-6.189,0.617c-1.521-0.098-2.872-0.955-4.334-1.236
			c-3.071-0.592-5.945-0.746-8.979-1.547c-4.948-1.312-10.446-3.728-15.788-4.953c-3.025-0.695-6.102-0.521-8.978-1.238
			c-3.466-0.866-6.626-3.684-10.834-4.334c-2.112-0.327-4.468,0.443-6.5,0c-4.472-0.977-5.722-6.469-12.692-5.572
			c-4.656,0.6-9.379,5.654-13.621,7.739c-2.133,1.049-4.864,1.317-7.739,2.167c-4.625,1.365-9.126,3.546-14.24,5.263
			c-3.926,1.317-6.808,2.616-10.834,1.548c-2.703,1.172-5.821,1.75-8.668,2.166c-3.328,0.487-6.92,1.124-10.215,0.619
			c-1.69-0.258-3.267-1.674-4.953-1.855c-1.241-0.137-2.555,0.444-3.715,0.311c-1.464-0.172-2.879-1.548-4.953-2.167
			c-1.046-0.312-2.521,0.021-3.405-0.312c-1.403-0.521-2.682-2.313-4.644-3.403c-4.227-2.353-9.783-3.787-12.382-5.884
			c-2.926-2.355-3.873-6.896-7.739-7.118c-0.566-5.331-2.792-10.017-8.049-9.906c-4.462,0.095-9.651,6.642-11.763,9.599
			c-1.366,1.91-2.419,4.396-3.715,6.811c-1.718,3.201-4.703,7.173-3.714,12.383c0.43,2.27,3.003,3.784,3.714,5.881
			c0.449,1.324,0.134,3.127,0.619,4.645c1.177,3.681,3.734,5.263,3.405,8.357c-0.642,6.043-9.363,3.957-12.382,6.812
			c-1.397-0.048-1.807-1.082-3.096-1.237c-3.456,2.003-9.114,2.76-13.621,1.237c-1.034-1.386-1.351-2.554-1.857-4.023
			c-0.419-1.218-0.485-3.077-1.238-4.646c-0.962-2.002-4.169-3.081-4.953-4.951c-0.542-1.296-0.187-3.07-0.619-4.335
			c-1.106-3.229-4.818-5.185-5.263-8.356c-1.273-9.082,3.254-16.017,4.953-26.312c1.54-0.936,3.684-1.27,4.643-2.785
			c0.085-1.221-2.181-0.09-2.477-0.928c0.917-3.057,3.05-5.391,4.953-7.739c3.024-3.733,4.941-7.864,8.668-10.835
			c3.583-2.855,9.075-4.418,13.621-6.812c1.182-0.621,2-1.603,3.095-2.166c3.98-2.05,9.149-2.357,10.835-7.119
			c-0.087-6.947-0.021-13.496,0.31-20.121c0.099-1.996,0.659-4.758,0.31-6.19c-0.693-2.843-5.321-2.995-8.049-4.334
			c-1.708-0.839-2.938-3.063-4.953-4.334c-2.266-1.431-5.308-2.017-8.048-3.097c-1.215-0.479-2.459-1.357-3.715-1.856
			c-1.536-0.61-3.236-0.642-4.333-1.237c-2.96-1.608-4.659-5.645-7.739-8.049c-3.662-2.859-8.212-3.322-9.287-8.356
			c-1.748-0.421-2.763-1.571-4.644-1.857c-8.342-8.838-15.725-18.243-17.645-32.504c-3.88-28.822,0-65.611,0-97.202
			c0-20.329-0.036-38.459-10.525-48.91c6.479-7.452,15.187-12.674,22.598-19.193C29.115,51.474,31.091,58.578,34.671,64.079z
			 M40.243,88.225c-1.242,3.416-1.021,9.051-1.238,13.621c-0.467,9.803-0.721,19.736-0.31,28.789
			c0.219,4.808,0.095,9.785,1.548,13.311c1.458,3.539,8.61,10.421,13.311,9.906c3.11-0.341,7.258-6.07,8.358-8.668
			c2.796-6.605,3.096-18.38,3.096-29.099c0-16.372-0.483-33.322-11.764-37.766c-0.206,0-0.413,0-0.619,0
			C47.526,80.428,42.152,82.976,40.243,88.225z M389.117,237.123c-2.039-1.635-3.498-3.592-5.572-5.264
			c-2.016-1.623-4.411-2.735-6.811-4.023c-4.651-2.496-9.907-5.038-15.479-6.5c-3.165-0.831-6.396-1.029-9.597-1.857
			c-2.829-0.73-5.435-2.26-8.358-3.096c-5.72-1.635-14.131-1.535-20.431-1.238c-3.787,0.181-9.813-0.299-14.239,0.312
			c-1.973,0.271-3.828,1.453-5.571,1.548c-1.834,0.102-3.727-0.727-5.572-0.619c-2.03,0.116-4.719,1.385-7.43,2.168
			c-7.324,2.116-18.295,1.699-25.385,3.404c-3.984,0.958-7.343,4.036-12.072,2.477c-10.855,5.24-24.396,7.799-39.003,9.287
			c-2.568,3.469-7.026,3.043-10.525,4.645c-1.771,0.81-2.823,2.621-4.643,3.404c-1.09,0.471-2.456,0.442-3.715,0.93
			c-4.626,1.781-7.628,6.117-13.311,5.882c-2.939,3.532-9.4,3.123-14.24,4.644c-2.799,0.879-4.764,3.344-8.668,2.478
			c-2.179,1.188-4.877,4.325-8.358,4.953c-1.337,0.239-3.231-0.226-4.953,0c-1.3,0.17-2.4,0.95-3.405,0.929
			c-1.313-0.027-2.23-1.186-3.405-0.929c-4.012,2.729-9.532-1.746-13.001,1.548c-1.283,1.218-2.015,5.146-2.167,7.738
			c-0.146,2.471,0.118,5.012,1.548,6.5c3.551,0.812,7.531-0.018,11.454,0.312c2.061,0.171,4.113,1.224,5.881,1.238
			c2.252,0.021,5.312-1.243,8.358-1.55c3.31-0.329,7.031,0.125,9.906-0.31c5.054-0.763,10.278-5.233,16.097-6.19
			c1.729-0.284,3.592,0.176,5.572-0.311c3.149-0.771,6.393-3.105,9.906-4.334c4.339-1.518,8.494-2.199,10.834-3.715
			c1.528-0.986,2.453-2.977,4.024-4.023c3.022-2.016,6.995-3.057,10.525-4.334c3.803-1.375,7.854-2.604,12.073-3.096
			c4.274-3.1,9.652-4.361,15.168-6.191c3.095-1.024,6.024-2.885,8.976-3.715c1.488-0.418,3.3-0.449,4.953-0.929
			c1.597-0.462,3.113-1.329,4.646-1.548c2.048-0.293,4.392,0.43,6.501,0c1.604-0.326,2.921-1.712,4.334-2.477
			c1.521-0.824,3.271-1.727,4.645-2.168c4.539-1.461,15.424-2.664,21.051-2.166c2.017,0.178,4.027,1.242,6.501,1.236
			c2.735-0.005,5.7-1.96,8.667-1.855c1.918,0.064,4.076,1.377,6.189,1.547c2.033,0.164,4.301-0.516,6.191-0.309
			c1.328,0.146,2.649,1.172,4.024,1.547c10.787,2.953,23.338,2.121,30.337,8.668c0.366,3.097,1.479,5.506,2.786,6.812
			c5.688,5.69,11.131,1.547,17.952-0.31c4.271-1.162,8.919-1.648,9.906-4.334C391.619,241.227,389.885,239.657,389.117,237.123z
			 M188.212,346.707c-0.697-2.493-4.496-2.634-7.739-3.715c-2.727-0.908-6.061-3.18-9.287-3.096
			c-5.792,0.147-9.934,6.396-17.025,6.811c-4.18,0.244-5.953-1.275-9.597-1.238c-2.018,0.021-3.667,1.125-5.881,0.619
			c-3.421-0.779-4.863-4.271-7.739-5.57c-1.464-0.662-2.767-0.119-4.644-1.238c-4.976-7.129-10.247-15.401-12.382-25.385
			c-0.696-3.254-1.668-7.052-1.238-10.216c0.314-2.306,1.679-4.354,1.857-6.811c0.211-2.903-0.105-5.396-1.238-8.358
			c2.682-2.469,0.831-7.316,1.548-11.145c0.323-1.727,1.945-3.18,2.167-4.645c0.266-1.753-0.503-3.619-0.31-5.263
			c0.562-4.754,3.542-8.474,5.882-11.765c2.5-3.52,5.112-6.807,6.81-10.834c5.812-2.276,9.993-7.649,15.478-10.524
			c4.578-2.397,8.159-2.25,13.001-0.619c6.099,2.056,11.364,5.419,15.788,8.668c4.391,0.414,9.349-0.397,13.93-2.167
			c3.821-1.475,9.114-3.438,9.287-6.812c0.173-3.37-3.102-4.084-4.644-6.5c-7.788-0.881-13.725-3.609-19.193-6.811
			c-3.796,1.149-5.729-2.023-8.667-2.785c-4.798-1.244-10.07,0.377-14.859-1.549c-5.701,1.321-11.57,2.889-16.716,3.715
			c-1.757,0.282-3.55-0.037-5.263,0.312c-7.786,1.575-15.516,9.374-19.812,14.237c-4.111,4.656-7.893,9.035-10.835,14.552
			c-0.965,1.809-2.524,3.926-3.095,5.569c-0.468,1.35-0.512,3.049-0.929,4.646c-0.849,3.253-2.006,5.681-3.405,8.356
			c-0.637,1.219-1.626,2.812-1.857,4.024c-0.201,1.054,0.488,2.245,0.31,3.405c-0.307,1.998-1.956,3.729-2.167,5.572
			c-0.27,2.354,1.244,5.023-0.619,7.429c2.806,3.024,0.235,7.89,0,11.145c-0.21,2.909,0.565,5.983,0.929,8.978
			c1.175,9.68,0.298,19.681,4.024,26.623c0.708,1.317,2.006,2.404,3.096,3.716c3.801,4.573,6.663,11.099,10.215,14.549
			c11.25,3.626,20.064,12.772,35.6,11.454c1.996-0.17,2.708-0.585,4.953-1.238c3.528,2.809,6.515-1.131,11.145,0
			c3.224-2.342,8.608-1.939,13.001-2.785c6.19-1.189,11.097-3.562,14.549-7.119C186.084,352.669,189.326,350.688,188.212,346.707z
			 M52.935,234.956c-0.276-0.415-1.492-1.619-1.238-1.238C52.344,234.688,53.13,235.249,52.935,234.956z M34.671,234.956
			C32.456,236.538,35.321,234.491,34.671,234.956L34.671,234.956z M344.85,242.695c-8.104,0.318-15.312-4.586-23.524-4.646
			c-1.369-0.01-2.946,0.556-4.334,0.312c-1.673-0.295-2.41-1.659-4.334-1.857c-1.312-0.136-3.064,1.111-4.645,1.238
			c-3.646,0.294-7.711-0.562-11.764-0.311c-4.856,0.303-10.045,1.315-14.858,2.478c-4.865,1.173-9.508,3.428-13.621,4.024
			c-3.936,0.568-8.354,0.248-10.523,2.166c-1.158,1.022-1.362,2.901-2.167,4.023c4.553,3.604,11.03,2.204,17.955,2.167
			c3.196-0.019,6.329,0.421,9.596,0.618c2.377,0.146,4.81-0.521,7.12-0.311c0.982,0.092,2.102,0.709,3.096,0.928
			c3.365,0.74,7.245,1.244,10.836,1.238c5.146-0.007,10.495-1.406,15.479-0.929c1.681,0.162,3.276,0.95,4.953,1.238
			c9.124,1.573,18.021-0.293,26.312-2.167C352.137,247.076,347.496,245.174,344.85,242.695z M134.349,252.91
			c9.768,1.873,20.122-0.329,25.693-4.643c2.55,1.041,4.32-1.207,4.644-3.406C156.754,234.814,136.583,242.684,134.349,252.91z
			 M364.043,257.555c-1.451,0.2-3.707-0.404-4.644,0.309C360.85,257.663,363.106,258.27,364.043,257.555z M370.854,257.863
			c-0.738,0.188-2.244-0.389-2.477,0.31C369.117,257.984,370.622,258.562,370.854,257.863z M303.369,261.578
			c-0.643,0.186-2.034-0.383-2.167,0.311C301.844,261.704,303.234,262.271,303.369,261.578z M333.087,261.578
			c-0.45,0.169-1.601-0.361-1.548,0.311C331.988,261.719,333.139,262.25,333.087,261.578z M333.706,282.938
			c-2.1-0.215-4.09-1.424-6.191-1.547c-1.818-0.104-3.757,0.543-5.57,0.618c-9.663,0.408-20.686-1.103-30.027-1.547
			c-3.538-0.169-7.03,0.636-10.216,0.31c-1.774-0.183-3.344-1.234-4.952-1.547c-4.771-0.926-9.103-0.485-13.621,0
			c-2.076,0.224-4.565,1.065-6.501,0.928c-1.521-0.106-3.842-1.41-6.191-2.166c-4.403-1.415-8.814-2.413-13.621-3.096
			c-2.69-0.383-5.362-0.312-8.048-0.619c-3.241-0.373-5.897-2.338-8.668-3.097c-3.32-0.909-6.586-0.956-9.287-1.856
			c-2.417-0.807-4.188-2.825-6.501-3.096c-4.92-0.574-5.991,2.778-9.596,4.023c-1.438,0.496-3.105,0.326-4.644,0.929
			c-2.056,0.806-3.39,2.802-5.572,3.405c-2.686,0.742-5.85,0.191-8.668,1.238c-2.013,0.746-3.171,2.992-5.881,4.022
			c-2.105,0.802-5.554,0.742-8.668,1.548c-1.793,0.465-3.388,1.914-4.953,2.166c-1.15,0.188-2.787-0.396-4.024-0.31
			c-3.778,0.265-7.449,1.815-10.525,1.548c-1.829-0.158-4.134-1.327-6.5-1.548c-6.188-0.576-13.724,0.942-14.859,4.953
			c-1.079,3.812,0.604,9.3,0.31,12.69c6.532,3.362,16.42,0.476,22.598-1.238c1.648,0.828,3.588,1.365,4.953,2.479
			c1.548-0.104,2.54-0.763,4.334-0.619c9.262,4.418,22.728,7.108,32.194,12.691c3.05,1.8,7.651,4.554,11.454,3.096
			c1.239-0.476,1.608-1.894,2.786-2.478c7.173-0.669,10.035-5.647,18.573-4.951c4.367-3.228,12.859-5.074,20.122-3.405
			c3.727-1.828,7.77-2.451,12.382-3.404c2.167-0.447,4.711-1.523,6.5-1.549c1.732-0.021,3.51,1.066,5.264,0.93
			c1.78-0.142,3.438-1.559,5.264-2.166c10.873-3.639,25.941-0.188,37.146-4.024c7.119,2.213,19.327,0.938,30.027,1.548
			c4.548,0.26,8.421,1.665,13.001,1.238c8.53-0.795,18.465-4.799,15.788-15.17C353.777,280.355,343.637,283.963,333.706,282.938z
			 M400.262,266.223c-0.545,0.178-1.817-0.375-1.855,0.311C398.948,266.354,400.223,266.904,400.262,266.223z M227.836,266.531
			c-0.84,0.191-2.457-0.393-2.786,0.31C225.89,266.648,227.507,267.232,227.836,266.531z M253.221,271.794
			C251.236,271.438,252.54,272.739,253.221,271.794L253.221,271.794z M394.999,306.773c1.29,0.363,2.485,1.24,3.405,1.238
			c1.256-0.003,5.166-1.886,5.569-3.404c0.092-0.336,0.56-0.157,0.619-0.312c0.748-1.832,0.163-4.7,0.619-7.12
			c0.078-0.414,0.453-0.391,0.619-0.929c1.594-5.147,2.406-10.115,2.167-16.406c-1.062-1.002-1.997-2.131-2.786-3.403
			c-0.642-1.36,1.071-2.981,0-2.787c-0.644-2.182-3.303-1.952-4.952-1.856c-5.04,0.292-11.512,5.029-15.479,5.572
			c-4.354,0.595-8.998-0.613-9.906,2.786c-0.091,0.342-0.551,0.146-0.619,0.31c-1.457,3.453,0.014,6.961-0.619,10.524
			c-0.043,0.242-0.508,0.863-0.619,1.238c-0.405,1.377-0.497,1.732-0.929,2.477c-1.209,2.089-3.417,3.729-3.095,6.811
			C375.16,305.874,386.986,304.516,394.999,306.773z M372.71,272.104c-0.449,0.17-1.6-0.36-1.548,0.312
			C371.612,272.243,372.763,272.773,372.71,272.104z M321.014,275.199C319.031,274.842,320.334,276.145,321.014,275.199
			L321.014,275.199z M333.396,275.509c-1.246,0.198-3.294-0.401-4.024,0.31C330.618,275.619,332.664,276.221,333.396,275.509z
			 M344.23,275.818c-0.449,0.168-1.602-0.362-1.55,0.31C343.133,275.958,344.283,276.489,344.23,275.818z M328.753,305.846
			C326.771,305.488,328.073,306.791,328.753,305.846L328.753,305.846z M335.562,306.154c-0.643,0.185-2.033-0.383-2.166,0.311
			C334.037,306.279,335.43,306.848,335.562,306.154z M344.85,306.465c-0.544,0.178-1.816-0.374-1.855,0.311
			C343.537,306.596,344.812,307.148,344.85,306.465z M322.562,345.469c-18.352,5.709-50.541,5.68-66.865-1.548
			c-3.361-1.487-7.728-3.95-11.453-4.022c-1.822-0.037-3.51,0.662-5.263,0.619c-4.693-0.119-9.386-2.009-13.93-3.406
			c-4.836-1.486-9.803-2.527-13.621-4.022c-3.148-1.231-6.494-3.586-9.906-5.263c-4.115-2.022-9.814-5.297-14.549-4.024
			c-5.458-3.973-13.875-5.96-20.431-8.978c-2.287-1.053-4.36-2.995-6.501-3.405c-1.475-0.28-3.202,0.374-4.643,0
			c-1.797-0.466-3.08-2.455-4.644-3.095c-3.144-1.287-7.418-1.649-11.763-1.549c-6.238,0.146-11.952,1.371-17.955,3.404
			c-1.525,6.854,2.561,10.6,5.881,13.62c2.765,0.14,4.962-0.19,7.43,0c2.551,0.196,4.938,1.485,7.12,1.548
			c1.54,0.045,2.842-0.729,4.334-0.619c2.917,0.223,5.987,2.719,9.287,0.931c4.479,3.139,10.681,4.682,15.787,7.118
			c1.774,0.849,3.331,2.453,4.953,2.787c2.054,0.42,4.293-0.102,6.191,0.311c7.844,1.691,13.176,8.521,23.217,7.119
			c2.022,1.021,3.288,4.496,5.572,5.263c1.24,0.416,2.915-0.044,4.334,0.312c2.332,0.582,4.884,2.873,7.739,3.715
			c5.492,1.617,11.959,0.537,16.407,2.166c3.188,1.169,5.369,4.419,8.667,5.264c2.34,0.6,4.988-0.125,7.738,0.311
			c2.613,0.412,5.09,2.484,7.74,3.097c6.379,1.469,15.764,1.346,22.598,2.167c2.679,0.32,5.312,1.042,7.43,0.929
			c2.624-0.142,5.316-1.455,8.357-1.856c2.929-0.389,6.235-0.763,9.598-0.93c5.968-0.298,15.798,0.84,20.431-0.617
			c1.779-0.562,2.97-3.065,5.265-3.717c1.247-0.354,2.571,0.248,3.715,0c2.385-0.52,4.364-3.75,8.355-2.477
			c2.436-3.654,7.649-4.527,12.073-6.191c2.143-6.011,10.577-5.727,13.62-10.834c1.197-4.298-0.992-6.34-4.023-7.738
			c-5.646-2.605-15.43-3.336-21.979-3.715c-0.913,3.42-3.085,5.584-4.334,8.668C335.896,338.393,330.165,343.104,322.562,345.469z
			 M351.66,306.773C349.678,306.417,350.98,307.721,351.66,306.773L351.66,306.773z M312.965,319.156
			c-0.544,0.179-1.816-0.374-1.855,0.31C311.652,319.288,312.927,319.84,312.965,319.156z M342.683,319.466
			c-0.84,0.192-2.456-0.393-2.783,0.31C340.737,319.584,342.354,320.169,342.683,319.466z M345.778,319.466
			C342.225,319.12,343.562,320.391,345.778,319.466L345.778,319.466z M296.249,319.775c-0.84,0.19-2.457-0.395-2.786,0.31
			C294.303,319.895,295.92,320.479,296.249,319.775z M321.633,327.205c-5.856-0.428-11.688-2.378-17.335-1.857
			c-4.479,0.413-8.546,3.02-12.692,3.096c-3.237,0.062-6.528-1.139-9.904-1.236c-6.521-0.191-13.028,0.979-17.954,2.479
			c-1.854,0.562-3.787,1.365-5.572,1.547c-3.413,0.346-6.641-0.89-7.118,1.238c-0.83,3.674,9.969,5.617,12.69,6.19
			c6.438,1.354,11.903,3.168,15.788,3.403c3.38,0.205,5.439-0.789,7.736-0.928c2.806-0.171,5.643,0.825,8.668,0.928
			c4.6,0.154,10.461-1.106,15.787-1.855c9.288-1.309,15.159-2.098,19.812-6.501c1.473-1.396,3.045-3.354,3.715-5.265
			C331.164,326.23,326.476,327.559,321.633,327.205z M134.349,330.301c-0.33-0.703-0.939,0.889-1.857,0.619
			c-0.226,3.837,2.007,5.217,3.405,7.43c6.808-1.131,15.742,2.58,20.431-1.548C153.741,329.895,141.042,333.102,134.349,330.301z
			 M434.932,333.706C437.19,335.673,434.871,332.997,434.932,333.706L434.932,333.706z M404.904,337.73
			c-0.396-0.947-1.772-0.91-2.167-1.857c-0.525-0.068-0.768,0.35,0,0.311C403.199,336.959,404.128,337.27,404.904,337.73z
			 M43.338,343.611c0.084-0.422-0.192-1.209-0.31-0.619C42.944,343.414,43.221,344.201,43.338,343.611z M438.956,358.471
			c0.206,0,0.413,0,0.619,0c0-0.205,0-0.412,0-0.619c-0.206,0-0.413,0-0.619,0C438.956,358.059,438.956,358.266,438.956,358.471z
			 M438.956,361.566c0.206,0,0.413,0,0.619,0c0-0.207,0-0.414,0-0.619c-0.206,0-0.413,0-0.619,0
			C438.956,361.152,438.956,361.359,438.956,361.566z M470.841,371.781c0.206,0,0.413,0,0.619,0c0-0.206,0-0.412,0-0.618
			c-0.206,0-0.413,0-0.619,0C470.841,371.369,470.841,371.575,470.841,371.781z M470.841,376.734c0.206,0,0.413,0,0.619,0
			c0-0.207,0-0.412,0-0.619c-0.206,0-0.413,0-0.619,0C470.841,376.322,470.841,376.527,470.841,376.734z M448.553,381.688
			c0.206,0,0.413,0,0.619,0c0-0.412,0-0.824,0-1.236c-0.206,0-0.413,0-0.619,0C448.553,380.861,448.553,381.273,448.553,381.688z
			 M448.553,383.545c0.902,0.455,0.902-1.384,0-0.929C448.553,382.926,448.553,383.234,448.553,383.545z"/>
	</g>
</g>
</svg>
